<?xml version="1.0" encoding="UTF-8"?>
<!DOCTYPE svg PUBLIC "-//W3C//DTD SVG 1.1//EN" "http://www.w3.org/Graphics/SVG/1.1/DTD/svg11.dtd">
<!-- Creator: CorelDRAW 2021 (64-Bit) -->
<svg xmlns="http://www.w3.org/2000/svg" xml:space="preserve" width="149.677mm" height="55.194mm" version="1.1" style="shape-rendering:geometricPrecision; text-rendering:geometricPrecision; image-rendering:optimizeQuality; fill-rule:evenodd; clip-rule:evenodd"
viewBox="0 0 14028.3 5173"
 xmlns:xlink="http://www.w3.org/1999/xlink"
 xmlns:xodm="http://www.corel.com/coreldraw/odm/2003">
 <defs>
  <style type="text/css">
   <![CDATA[
    .str0 {stroke:#2B2A29;stroke-width:18.74;stroke-miterlimit:22.9256}
    .fil20 {fill:none}
    .fil3 {fill:#FEFEFE}
    .fil2 {fill:#EBECEC}
    .fil1 {fill:#FFED00}
    .fil21 {fill:#00A0E3}
    .fil5 {fill:#00A0E3}
    .fil6 {fill:#1B0204}
    .fil13 {fill:#1B1B16}
    .fil0 {fill:#232323}
    .fil10 {fill:#37595B}
    .fil7 {fill:#493B3A}
    .fil17 {fill:#54573C}
    .fil18 {fill:#6F6F6C}
    .fil14 {fill:#8A944F}
    .fil19 {fill:#8E8F8D}
    .fil15 {fill:#ADB47A}
    .fil16 {fill:#CDD19D}
    .fil9 {fill:#DE1121}
    .fil12 {fill:#E09A52}
    .fil8 {fill:#E96A26}
    .fil4 {fill:#F7A825}
    .fil11 {fill:white}
    .fil22 {fill:#FEFEFE;fill-rule:nonzero}
   ]]>
  </style>
 </defs>
 <g id="Слой_x0020_1">
  <metadata id="CorelCorpID_0Corel-Layer"/>
  <path class="fil0" d="M3253.91 3577.89c183.16,-29.96 353.67,43.83 452.87,123.01 15.98,12.77 23.09,22.26 37.44,36.77 222.1,224.83 239.71,546.5 44.02,790.46 -37.04,46.19 -101.93,105.84 -155.05,134.67 -410.35,222.76 -841.41,-59.81 -879.57,-429.57 -22,-213.17 48.33,-376.57 181.25,-502.78 39.35,-37.37 37.95,-39.95 101.14,-77.52 72.13,-42.88 120.1,-59.05 217.9,-75.04zm703.9 -110.21c-1.28,-10.08 2.02,-1.92 -6.21,-11.38 -0.32,-0.37 -15.22,-13.15 -16.4,-14.08 -20.29,-15.87 -19.48,-8.68 -26.58,-32.09l-26.03 -0.63c0.07,-0.26 0.21,-8.49 7.07,-16.03 13.45,-14.74 0.87,-14.63 18.79,-5.46l-0.08 -24.64c-10.43,5.63 -26.9,17.92 -32,24.36 -13.1,16.52 -3.59,14.37 -15.56,32.42l-13.03 -6.22 0.34 -12.63c6.87,-10.46 5.62,-18.69 15.66,-33.54 13.91,-20.57 9.29,-4.18 24.69,-26.02l-2.52 -6 -6.7 -2.87c-10.68,22.3 -33.68,19.92 -45.03,62.42 -19.39,-2.15 -29.63,-10.18 -48.15,-20.67 -32.55,-18.44 -19.28,-11.87 -16.61,-50.7 -29.77,-5.22 -65.16,-23.5 -94.9,-35.49 -82.65,-33.34 -51.41,-26.05 -81.34,1.61l-155.83 -27.77 -8.48 -36.64 -145.03 -2.03c-56.65,3.21 -5.03,30.49 -54.77,43.19l-123.08 21.55 -13.25 -36.72c-38.83,1.12 -113.42,45.98 -160.92,55.48l1.87 53.98c-33.98,12.18 -72.34,47.54 -100.45,52.87 -15.08,-12.09 -17.69,-21.1 -32.93,-32l-99.68 83.73c-10.81,9.72 -17.15,18.3 -27.33,27.36 21.13,55.14 26.55,36.48 -10.98,82.36l-50.7 61.54 -50.26 -15.45c-29.1,44.59 -54.3,100.01 -80.69,143.28 10.34,18.99 21.71,28.13 34.34,43.53l-21.81 62.86 -55.42 -5.35c-8.68,28.23 -34.64,140.55 -33.47,165.61l48.01 24.78 -5.15 132.83 -56.23 8.18 27.43 168.5 58.65 13.29 19.43 68.53 9.06 34.67 -46.46 20.85c10.38,34.89 62.03,137.8 85.17,154.93l48.01 -8.18c7.91,6.61 78.36,97.17 81.29,103.07 -10.01,21.94 -13.67,20.83 -32.49,35.49 9.9,27.52 38.43,42.31 61.57,64.16l60.25 54.31c24.47,-7.72 29.92,-16.36 51.83,-25.52 31.06,17.56 57.13,40.62 94.54,55.24l-18.63 51.1c17.09,9.91 137.99,58.91 158.88,61.27 17.76,-17.06 17.95,-21.13 29.53,-34.46l152.52 32.27 1.25 45.82 169.95 -0.19 13.74 -40.28 140.58 -22.93 17.84 37.52 150.62 -57.91c21.97,-60.53 -24.52,-23.58 43.86,-61.07 24.05,-13.19 41.37,-24.15 65.3,-37.63l33.98 24.09c8.23,-16.65 98.22,-88.26 118.46,-102.94 1.24,-31.17 -13.78,-25.46 -1.05,-44.18 4.66,-6.86 21.92,-23.34 29.22,-32.3 14.4,-17.67 46.15,-50.1 54.4,-72.53l39.1 13.25c7.85,-42.64 55.97,-95.17 70.65,-135.34 13.16,-36.02 -25.89,-5.9 -2.36,-63.08 20.42,-49.63 11.6,-37.92 28.53,-45.44l15.66 -5.19c1.01,-2.29 3.9,-0.82 5.26,-1.95l33.98 -150.65 522.68 -0.68c4.18,-22.95 -4.27,-58.65 9.18,-77.15 -15.7,-22.07 -17.92,-71.69 2.16,-105.49 -1.11,-1.25 -2.16,-3.18 -2.64,-4.26 -11.02,-24.53 -6.48,-45.05 -5.96,-77.7l-526.77 0.55 -11.7 -79.14c-40.2,-9.44 -30.84,-13.8 -42.07,-55.71 -5.81,-21.67 -14.02,-48.27 -22.13,-67.69 12.28,-21.48 9.98,-4.79 19.53,-23.22l-74.44 -141.2c-34.83,-5.24 -22.7,10 -44.2,-17.51 -6.78,-8.67 -13.41,-21.29 -22.58,-32.98 -17.66,-22.52 -34.91,-45.7 -56.04,-60.78 6.57,-24.05 5.95,-13.58 15.37,-33.09 -23.41,-18.23 -22.38,-26.36 -46.57,-33.45 -6.59,-13.49 -2.54,-8.06 -16.55,-16.61zm-1239.48 1212.7c-26.47,-17.3 -73.09,-83.39 -91.45,-111.28 -26.58,-40.35 -40.97,-79.08 -63.23,-128.55 -104.83,-232.97 -63.16,-564.72 82.72,-769.13 9,-12.6 14.13,-17.55 21.73,-28.29 32.47,-45.89 69.32,-85.8 113.95,-127.17 75.52,-70 208.91,-142.69 310.64,-172.34 164.79,-48.03 349.1,-43.32 508.15,10.91 60.33,20.56 144.36,60.66 192.87,97.53 17.99,13.67 39.46,30.51 56.34,37.89 -11.99,8.76 -1.19,7.67 -18.61,5.75 -13.78,-1.51 0.7,3.15 -14.89,-8.7 -64.8,-49.21 -141.5,-81.41 -222.04,-105.32 -258.44,-76.71 -513.16,-21.77 -723.93,130.91l-63.1 53.77c-74.98,77.74 -138.67,144.5 -185.57,251.41 -99.16,226.07 -100.6,386.46 -33.46,618.33 33.06,114.16 121.25,219.43 129.89,244.25z"/>
  <path class="fil0" d="M1308.68 4369.96c-24.57,183.95 -182.22,354.8 -353.71,399.93 -134.13,35.31 -292.57,26.35 -409.54,-52.64 -85.04,-57.43 -128.06,-101.66 -180.21,-195.78 -8.7,-15.69 -15.12,-22.28 -21.94,-39.48 -153.33,-386.1 185.57,-760.26 548.89,-691.2 126.95,24.13 235.19,84.08 313.89,185.98 74.72,96.71 125.13,224.72 102.63,393.19zm-1028.32 -691.63l-40.77 30.93 5.79 56.76c-7.38,5.46 -12.99,9.06 -19.95,16.57l-16.77 24.34c-3.82,11.48 -6.98,26.39 -22.39,32.1 -0.47,0.18 -2.17,0.61 -2.62,0.72 -8.72,2.09 11.84,11.72 -10.85,-0.52l-27.34 -10.84c-14.86,12.61 -65.47,104.33 -72.96,128.04 13.19,13.4 10.65,17.4 32.1,27.67l-17.82 56.2 -46.16 -5.52 -34.51 145.38 43 20.06 -2.44 114.21 -46.67 9.1 18.74 142.37 50.78 11.85c9.77,31.75 23.36,60.77 27.77,91.45l-40.5 23.11 65.63 124.1 52.02 -4.8 65.24 90.67c-12.99,20.75 -17.48,14.69 -26.03,38.59l102.05 91.6c21.81,-7.04 48.04,-44.01 125.41,30.38l-13.19 36.92c22.51,16.6 120.14,54.05 139.96,56.55 7.39,-16.89 6.96,-15.69 22.53,-29.83l127.25 27.13 5.69 38.88 145.53 -0.1 11.96 -36.36 118.87 -17.23c7.86,16.67 3.12,17.1 17.04,30.66l129.95 -49.15 4.4 -38.41 88.38 -45.41c14.4,9.18 11.49,10.37 26.06,20.07 32.83,-42.76 98.27,-64.85 102.74,-99.33 3.7,-28.58 -23.82,-2.1 28.03,-58.57 14.64,-15.94 38.82,-41.88 45.95,-57.83l29.38 10.53c17.83,-34.05 50.38,-84.31 61.97,-112.58 14.29,-34.87 -28.49,-19.77 9.24,-82.64 7.93,-13.22 7.49,-11.14 22.51,-16.64l26.59 -75.75 153.44 -3.76 -2.07 3.33 -0.44 -403.77 -182.42 -0.1c-17.82,-20.71 -22.55,-41.45 -17.42,-63.46 6.1,-26.17 5.6,-18.74 -14.13,-43.28l-5.48 -14.08c-1.3,-17.27 -43.11,-71.52 -43.12,-71.53 -0.59,-2.44 -2.7,-2.32 -4.07,-3.47 -10.58,-11.58 -16.97,-9.67 -20.83,-24.97 -15.69,-9.66 -4.53,-0.84 -16.91,-13.09l-32.59 -42.19c-32.76,-39.7 7.22,-28.81 -28.74,-63.59 -86.13,-83.31 -73.15,-57.75 -117.23,-68.82 -4.22,-1.06 -43.64,-24.49 -58.81,-33.37 -34.98,-20.43 -14.04,-37.71 -37.99,-54.28 -6.54,-4.54 -53,-18.54 -67.53,-25.59 -62.79,-30.45 -59.67,11.65 -60.34,13.05 -18.66,-12 -22.52,-3.7 -43.43,-10.35 -116.73,-37.13 -76.82,8.29 -109.82,-54.27l-130.97 1.38c-9.12,8.56 -9.33,12.32 -13.41,17.06 -16.56,19.24 -110.78,42.83 -127.24,30.12 -11.5,-8.88 -5.74,-30.22 -56.93,-10.73 -95.65,36.39 -86.82,22.18 -88.44,77.85 -52.94,23.55 -50.54,41.12 -78.5,40.59 -27.62,-0.52 -12.2,-3.7 -26.95,-11.81 -29.5,-16.23 -23.86,12.98 -79.22,47.75zm7.09 1070.18c-45.96,-31.37 -116.1,-148.99 -138.48,-204.54 -70.88,-176 -71.4,-395.31 9.67,-568.48 10.32,-22.04 16.41,-35.7 29.12,-56.82l98.49 -136.94c51.88,-60.7 139.33,-115.38 212.34,-152.58 164.64,-83.86 403.12,-91.87 568.35,-20.84 44.73,19.23 76.88,36.25 115.88,57.53l46.77 33.5c1.01,0.79 2.43,1.94 3.44,2.74l45.66 43.15c-36.24,-17.72 -58.39,-40.63 -98.18,-63.31 -108.08,-61.63 -273.78,-100.16 -404.44,-87.17 -141.69,14.09 -245.15,54.86 -354.08,131.91 -86.24,61 -43.52,37.11 -87.97,78.27 -15.35,14.22 -27.82,21.1 -41.44,38.5 -186.46,238.13 -220.24,534.18 -70.43,802.58l65.29 102.53z"/>
  <path class="fil1" d="M2947.35 1809.15c60.24,-12.92 157.75,-3.87 225.75,-4.02 84.46,-0.19 117.58,11.58 140.56,83.83 15.16,47.69 51.57,320.91 60.59,389.24 17.49,132.5 40.64,260.45 58.29,392.98 29.38,220.61 78.7,277.55 -123.61,279.6 -157.41,1.59 -361.44,60.58 -388.87,58.68 -76.58,-5.29 -63.24,-99.31 -63.29,-164.84l-0.22 -901.74c0.15,-78.64 21.29,-118.81 90.8,-133.72zm-1214.07 4.32c25.23,-75.4 125.43,-136.43 228.67,-139.52 340.86,-10.2 736.91,8.27 1092.68,0.64l-1061.72 34.05c-136.91,4.45 -174.35,22.88 -259.62,104.83zm-42.04 16.85l4.28 19.56c0.59,17.75 0.09,8.34 -3.33,18.67l97.98 -2.76 13.02 3.43 36.29 5.49c12.9,-78.88 190.03,-56.46 270.88,-56.46 84.27,0 618.37,-7.13 653.19,2.78 89.94,25.6 79.66,138.8 79.66,239.27 0,216.15 0,432.29 0,648.44 0,278.92 35.92,291.6 -116.29,368.96 -152.98,77.74 -182.62,198.12 -268.57,218.32 -41.76,9.81 -557.46,3.69 -644.56,3.69 -107.31,0 -212.69,19.64 -205.45,-115.59l140.63 -836.52c14.74,-92.87 34.42,-184.96 47.75,-276.38 0.9,-31.38 1.25,-37.78 -25.24,-31.81l-148.77 835.21c-12.55,70.27 -36.24,162.95 -45.83,240.06 -8.81,70.87 -26.23,170.57 -42.66,240.47 -19.04,81.02 -26.59,161.96 -43.03,241.42 -8.51,41.14 -43.79,208.27 -35.79,242.05 3.86,15.3 10.25,13.38 20.83,24.97 1.37,1.14 3.48,1.03 4.07,3.47 0.01,0.01 41.82,54.26 43.12,71.53 58.1,32.61 22.99,41.61 30.77,83.61 1.97,10.65 5.85,8.87 9.07,29.27 32.1,2.18 63.48,1.88 96.07,1.8 42.69,-0.11 48.14,-3.44 81.67,-8.66 6.54,-59.27 1.27,-398.73 0.22,-502.18 -0.76,-74.67 -14.52,-106.3 67.68,-99.9 35.56,56.43 26.37,67.53 24.57,134.34l308.89 -3.29c3.47,-53.09 -4.52,-95.5 21.62,-133.11l58.75 1.73c20.85,101.04 -1.35,570.3 13.62,600.44 10.46,7.41 1.94,3.49 16.49,7.63 63.15,17.98 73.77,-26.8 74.63,-27.92l0.39 -16.8c-14.73,-26.06 -0.39,-18.09 -75.71,-18.63 -4.7,-57.56 32.43,-171.26 51.69,-219.75 129.25,-325.33 371.21,-541.85 709.83,-649 207.94,-65.79 320.65,-31.12 487,-34.68l37.09 -0.21 -14.56 -107.03 446.4 1.12 -448.84 -1.96c-16.46,-159.56 -81.56,-543.22 -110.1,-721.25 -18.65,-116.37 -37.68,-240.35 -56.18,-356.09 -18.62,-116.46 -81.17,-214.37 -181.55,-239.4 -61.81,-15.42 -709.7,-6.38 -827.75,-6.41 -137.35,-0.04 -277.01,-2.67 -414.05,-0.34 -88.15,1.51 -162.13,43.7 -203.61,112.46 -14.72,24.41 -16.16,48.44 -36.26,65.93z"/>
  <path class="fil2" d="M2776.89 2531.41c-26.49,-2.7 -91.81,15.6 -120.5,23.6 -36.62,10.21 -83.8,15.54 -124.63,22.13 -208.01,33.55 -439.75,10.75 -639.67,-65.86 -30.24,-11.58 -64.72,-35.94 -96.36,-42.13l-99.17 572.84c-7.78,48.35 -39.57,152.47 -13.71,186.6 19.84,17.32 572.05,7.3 674.65,7.38 129.8,0.09 89.01,3.12 156.75,-67.87 40.17,-42.09 70.82,-70.86 121.48,-107.13 58.39,-41.8 123.57,-64.53 135.31,-87 12.45,-23.82 6.7,-386.33 5.85,-442.56z"/>
  <path class="fil3" d="M1795.73 2469.15c31.64,6.19 66.12,30.54 96.36,42.13 199.91,76.61 431.66,99.41 639.67,65.86 40.84,-6.59 88.02,-11.92 124.63,-22.13 28.69,-8 94.01,-26.3 120.5,-23.6 -8.46,-724.28 56.41,-654.56 -178.41,-650.06l-556.08 2.27c-149.31,0 -143.26,-28.75 -166.21,109.17 -26.15,157.04 -57.68,319.96 -80.45,476.36z"/>
  <path class="fil4" d="M3302.42 3897.62c151.64,-16.51 279.07,97.7 294.93,227.21 19.14,156.43 -92.33,285.05 -226.32,300.58 -370.99,42.98 -414.26,-490.14 -68.62,-527.79zm-484.69 317.95c40.09,285.31 294.04,485 569.91,452.44 120.62,-14.24 185.97,-52.99 271.18,-115.31 20.96,-15.32 17.01,-13.5 35.31,-32.37 6.27,-6.47 1.26,-1.57 9.58,-9 88.86,-79.22 161.65,-252.21 141.97,-413.28 -32.73,-268 -269.41,-494.57 -573.87,-458.07 -293.8,35.23 -491.96,306.03 -454.07,575.58z"/>
  <path class="fil5" d="M383.04 3464.74c-54.55,3.81 -36.02,-55.46 -37.51,-181.68 -1.54,-131.19 -23.33,-189.92 39.6,-175.63 0.82,42.84 14.41,312.83 -2.09,357.31zm221.46 -19.13c-61.69,7.93 -42.16,-32.3 -41.57,-187.25 0.42,-112.48 -18.83,-198.74 38.94,-177.79 12.3,30.82 5.55,330.97 2.62,365.05zm-188.01 -310.77c0,-60.06 39.74,-54.13 43.46,-12.91 2.52,28 7.44,322.58 -5.47,333.57 -51.09,21.16 -36.03,-88.31 -36.24,-135.39l-1.74 -185.27zm223.05 -6.17c0.03,-38.03 -6.94,-63.39 31.52,-61.08 21.09,31.75 10.28,195.01 10.26,240.17 -0.03,80.46 13.92,148.86 -36.2,130.05 -12.83,-28.49 -5.61,-255.11 -5.59,-309.14zm-148.7 -6.18c-0.25,-33.61 2.48,-39.85 38.25,-35.48 7.6,72.85 5.41,127.82 5.41,202.22 0,113.47 17.25,166.91 -30.59,164.01 -21.28,-30.18 -12.97,-284.58 -13.07,-330.74zm295.82 -59.09c4.43,-12.14 23.78,-21.31 36.47,-8.14 12.74,13.21 5.49,99.27 5.49,122.82 0,25.61 6.37,236.86 -9.39,248.19 -29.34,21.07 -36.17,-8.95 -36.14,-32.04l3.57 -330.82zm-75.21 71.44c0.07,-38.37 -3.56,-53.48 12.08,-78.85l29.81 6.96 0.25 359.14 -22.33 19.6 -19.45 -14.27 -0.37 -292.58zm145.66 142.04c0,-47.25 0.85,-94.77 1.4,-142.05 0.96,-83.46 -9.59,-95.35 41.31,-91.81l-1.3 283.27c-0.29,16 13.53,123.54 -31.82,95.41 -14.36,-8.91 -9.77,-13.91 -9.77,-33.66l0.18 -111.17zm145.18 98.81c0,-67.7 2.74,-136.01 3.6,-203.79 1.47,-117.04 -15.42,-154.19 38.87,-151.39 11.58,42.42 3.36,179.62 2.5,231.68 -0.64,39.4 -1.6,78.56 -1.98,117.96 -0.52,54.29 -42.99,64.47 -42.99,5.55zm181.19 24.07c-29.94,3.47 -35.79,-0.52 -37.34,-29.69l7.4 -315.92c-0.22,-74.6 43.47,-63.11 43.47,-18.11 0,53.97 -3.61,334.41 -13.53,363.72zm-250.69 17.07c-9.57,-45.99 -2.18,-166.88 -1.15,-220.23 0.8,-41.43 -11.87,-214.22 40.17,-160.1 14.13,14.7 2.2,179.72 1.77,209.26 -1.73,117.45 15.57,178.21 -40.79,171.07zm-626.59 51.81c-42.55,-0.42 -30.21,-33.68 -31.12,-80.58 -0.72,-36.86 -1.11,-74.33 -1.22,-111.19 -0.29,-88.27 -27.56,-186.76 32.54,-160.54 5.22,14.84 22.5,324.07 -0.21,352.32zm1164.99 -90.08c-48.58,4.67 -33.63,-31.48 -32.88,-76.96 0.81,-48.95 8.29,-321.1 21.99,-330.41 43.83,-29.8 31.51,53.37 30.79,77.18 -2.38,78.46 -2.36,279.91 -19.9,330.18zm-174.72 8.31c-12.04,-74.29 5.67,-238.55 6.2,-326.21 0.15,-23.66 -4.08,-85.31 26.84,-77.13 28.65,7.57 9.74,165.45 9.03,200.7 -1.03,51.39 3.96,167.24 -12.78,204.48l-29.29 -1.85zm-61.75 -387.9c48.93,-18.11 39.29,33.06 38.29,68.15 -1.59,55.4 -10.69,303.55 -20.19,327.99l-26.36 -0.39c-9.96,-23.03 -3.04,-370.42 8.27,-395.74zm-147.06 15.14c51.33,-5.15 38.64,21.44 36.99,71.2 -1.87,56.61 -1.34,308.72 -17.09,320 -37.57,26.95 -34.68,-39.23 -34.13,-66.62 1.33,-66.09 1.45,-288.9 14.23,-324.59zm281.69 367.4c-8.29,-21.58 5.21,-268.71 6.58,-333.25 0.89,-41.92 -3.97,-79.01 38.54,-63.82 8.46,24.59 -5.06,370.4 -14.96,397.98l-30.16 -0.92zm-671.33 -395.52l-63.12 7.21c-7.34,2.55 -116.44,13.04 -126.12,13.51l-35.99 3.72 -55.82 3.6c-62.94,38.31 -143.43,-16.33 -206.77,62.02 -42.64,52.74 -33.47,156.57 -34.26,231.71l1.2 517.74c-2.09,12.17 -2.15,9.93 -4.32,13.72 22.69,12.24 2.14,2.61 10.85,0.52 0.45,-0.11 2.16,-0.54 2.62,-0.72 15.41,-5.71 18.57,-20.62 22.39,-32.1l16.77 -24.34c6.96,-7.51 12.58,-11.11 19.95,-16.57l-5.79 -56.76 40.77 -30.93c55.36,-34.77 49.72,-63.99 79.22,-47.75 14.74,8.11 -0.67,11.29 26.95,11.81 27.97,0.52 25.56,-17.04 78.5,-40.59 1.62,-55.66 -7.22,-41.45 88.44,-77.85 51.19,-19.49 45.43,1.86 56.93,10.73 16.46,12.71 110.68,-10.88 127.24,-30.12 4.08,-4.74 4.29,-8.5 13.41,-17.06l130.97 -1.38c33,62.55 -6.92,17.13 109.82,54.27 20.91,6.65 24.77,-1.65 43.43,10.35 0.67,-1.4 -2.45,-43.5 60.34,-13.05 14.53,7.05 60.99,21.05 67.53,25.59 23.95,16.58 3.01,33.85 37.99,54.28 15.17,8.88 54.59,32.31 58.81,33.37 44.08,11.07 31.1,-14.49 117.23,68.82 35.95,34.78 -4.02,23.89 28.74,63.59l32.59 42.19c12.38,12.25 1.22,3.43 16.91,13.09 -7.99,-33.78 27.28,-200.92 35.79,-242.05 16.44,-79.46 23.99,-160.41 43.03,-241.42 16.43,-69.9 33.85,-169.59 42.66,-240.47 9.59,-77.11 33.28,-169.78 45.83,-240.06l-924.71 111.37z"/>
  <path class="fil4" d="M580.38 4339.08c-28.31,-138.27 72.2,-250.62 178.98,-270.82 304.93,-57.67 385.28,385.41 94.92,448.54 -139.25,30.26 -252.16,-71.5 -273.91,-177.72zm-217.7 -24.71c5.86,103.06 51.37,200.93 120.2,274.11 0.88,0.93 2.14,2.25 3.02,3.19 0.88,0.94 2.11,2.29 2.98,3.21l5.93 6.47c146.28,153.1 392.57,174.18 583.89,34.27l44.97 -41.54c7.43,-8.2 4.68,-4.84 12.71,-12.2 70.05,-64.24 121.98,-198.84 113.4,-327.97 -15.7,-235.83 -216.8,-425.57 -473.09,-412.62 -234.51,11.86 -428.33,221.41 -414.01,473.08z"/>
  <path class="fil6" d="M1795.73 2469.15c22.77,-156.4 54.3,-319.32 80.45,-476.36 22.95,-137.92 16.9,-109.17 166.21,-109.17l556.08 -2.27c234.83,-4.5 169.95,-74.22 178.41,650.06 0.85,56.23 6.6,418.73 -5.85,442.56 -11.74,22.48 -76.92,45.2 -135.31,87 -50.66,36.27 -81.31,65.04 -121.48,107.13 -67.74,71 -26.96,67.97 -156.75,67.87 -102.6,-0.07 -654.81,9.94 -674.65,-7.38 -25.86,-34.13 5.93,-138.25 13.71,-186.6l99.17 -572.84zm43.74 -594.44c34.47,21.3 26.38,56.98 24.6,109.23 1.06,43.13 -14.42,61.51 -58.03,60.47l-9.33 26.82c-13.33,91.42 -33.01,183.51 -47.75,276.38l-140.63 836.52c-7.24,135.23 98.14,115.59 205.45,115.59 87.1,0 602.8,6.12 644.56,-3.69 85.94,-20.2 115.59,-140.58 268.57,-218.32 152.22,-77.36 116.29,-90.04 116.29,-368.96 0,-216.15 0,-432.29 0,-648.44 0,-100.47 10.28,-213.67 -79.66,-239.27 -34.82,-9.92 -568.92,-2.78 -653.19,-2.78 -80.86,0 -257.98,-22.42 -270.88,56.46z"/>
  <path class="fil7" d="M1823.34 4292.04l327.61 0.52c0.39,46.02 5.98,121.22 -4.31,164.09l-319.64 -1.32 -3.66 -163.29zm-299.93 -353.45l5.48 14.08c19.74,24.54 20.24,17.11 14.13,43.28 -5.13,22.01 -0.39,42.75 17.42,63.46l182.42 0.1 0.44 403.77 2.07 -3.33c-0.32,41.08 -13.03,129.68 17.5,146.84 65.92,37.04 58.33,-51.14 62.62,-91.24l322.55 -2c5.04,38.38 -2.61,131.03 62.88,93.52 36.48,-20.89 4.59,-105.82 21.02,-143.53l-1.43 -404.79c27.97,2.27 74.92,7.5 92.34,-5.11l4.6 -31.29c-0.86,1.12 -11.48,45.9 -74.63,27.92 -14.55,-4.14 -6.03,-0.22 -16.49,-7.63 -14.97,-30.14 7.24,-499.4 -13.62,-600.44l-58.75 -1.73c-26.14,37.6 -18.15,80.02 -21.62,133.11l-308.89 3.29c1.81,-66.82 10.99,-77.91 -24.57,-134.34 -82.2,-6.4 -68.44,25.23 -67.68,99.9 1.05,103.45 6.32,442.91 -0.22,502.18 -33.53,5.22 -38.98,8.55 -81.67,8.66 -32.59,0.08 -63.97,0.38 -96.07,-1.8 -3.22,-20.4 -7.1,-18.62 -9.07,-29.27 -7.78,-42 27.33,-51 -30.77,-83.61zm300.27 134.97l326.9 0 -0.3 164.81 -325.93 1.84 -0.67 -166.65zm3.16 -208.95c-5.91,-19.83 111.5,-11.28 147.58,-11.27 49.05,0.01 131,-6.47 169.1,-3.99 12.38,28.47 15.37,106.1 9.64,143.56 -4.23,27.64 -13.99,26.98 -36.17,27.83 -9.93,0.37 -31.69,-1.58 -43.7,-1.72l-249.73 0.59c-2.12,-10.98 -10.71,-138.16 3.28,-154.98zm-6.61 -220.14c31.46,-12.48 308.2,-15.8 324.8,-1.49 20.24,21.04 11.42,132.49 3.76,153.32 -9.42,11.42 -40.2,7.39 -56.89,7.07l-185.45 -0.5c-53.6,-0.12 -85.32,17.04 -86.66,-37.44 -0.83,-34.27 -2.89,-88.63 0.44,-120.96z"/>
  <path class="fil5" d="M2327.85 4005.57c1.19,-1.43 2.93,-5.43 3.49,-4.37 4.42,8.47 63.96,-175.54 85.47,-220.42 103,-214.89 249.95,-369.5 461.74,-483.95 307.36,-166.08 732.97,-147.05 1000.7,36.04l6.7 2.87 2.52 6 14.87 -0.51 5.53 18.14 19.2 5.54c-2.97,7.1 -4.1,5.29 3.64,5.29l15.76 9.18c17.34,-7.22 4.41,7.47 5.6,-21.9 1.32,-33.22 -4,-66.19 4.62,-99.45 -17.89,-5.06 -29.15,-13.52 -49.44,-25.02 -19.96,-11.31 -29.98,-17.74 -50.32,-29.51 -39.06,-22.62 -70.01,-32.95 -110.65,-50.43l-227.8 -60.41c-23.51,-5.71 -11.6,-3.28 -18.82,-9.14 -166.35,3.56 -279.06,-31.12 -487,34.68 -338.62,107.15 -580.57,323.67 -709.83,649 -19.26,48.49 -56.38,162.2 -51.69,219.75 75.32,0.54 60.98,-7.42 75.71,18.63z"/>
  <path class="fil2" d="M2919.65 2913.14l3.04 27.61c13.84,2.46 189.82,-34.79 226.28,-39.88 67.77,-9.46 193.87,-7.56 244.65,-21.26 6.75,-47.02 -69.54,-454.11 -76.65,-562.01l-15.92 -11.89c-20.22,18.54 -50.89,28.58 -70.74,39.64 -91.05,50.69 -123.01,58.37 -206.43,95.55l-75.58 29.5c-18.64,7.5 -4.11,2.93 -20.01,9.48 -10.58,86.65 11.39,387.18 -8.63,433.26z"/>
  <path class="fil6" d="M2919.65 2913.14l2.49 -797.25c0,-50.68 -15.99,-219.37 24.55,-240.61 15.37,-10.24 260.18,-10.96 281.13,-2.13 28.13,14.28 32.27,65.42 35.98,94.99l53.17 349.47c7.1,107.9 83.4,514.99 76.65,562.01 -50.78,13.69 -176.88,11.8 -244.65,21.26 -36.46,5.09 -212.43,42.34 -226.28,39.88l-3.04 -27.61zm27.7 -1103.99c-69.51,14.9 -90.65,55.07 -90.8,133.72l0.22 901.74c0.05,65.53 -13.29,159.56 63.29,164.84 27.43,1.9 231.46,-57.09 388.87,-58.68 202.31,-2.04 153,-58.99 123.61,-279.6 -17.65,-132.53 -40.8,-260.48 -58.29,-392.98 -9.03,-68.32 -45.43,-341.55 -60.59,-389.24 -22.98,-72.24 -56.09,-84.01 -140.56,-83.83 -68.01,0.15 -165.52,-8.9 -225.75,4.02z"/>
  <path class="fil3" d="M2919.65 2913.14c20.02,-46.07 -1.95,-346.61 8.63,-433.26 15.9,-6.54 1.37,-1.98 20.01,-9.48l75.58 -29.5c83.41,-37.18 115.37,-44.87 206.43,-95.55 19.85,-11.06 50.53,-21.1 70.74,-39.64l15.92 11.89 -53.17 -349.47c-3.71,-29.57 -7.85,-80.71 -35.98,-94.99 -20.95,-8.83 -265.75,-8.12 -281.13,2.13 -40.54,21.24 -24.55,189.93 -24.55,240.61l-2.49 797.25z"/>
  <path class="fil6" d="M2793.64 4190.87c-18.28,-312.42 212.07,-556.89 497.58,-576.97 312.86,-22.01 558.56,214.74 577.65,497.65 34.61,512.83 -578.6,750.07 -896.1,440.13 -23.03,-22.48 -46.97,-41.31 -66.4,-69.5 -61.83,-89.66 -105.26,-163.62 -112.73,-291.31zm460.27 -612.98c-97.8,16 -145.77,32.17 -217.9,75.04 -63.19,37.56 -61.78,40.15 -101.14,77.52 -132.92,126.21 -203.25,289.62 -181.25,502.78 38.16,369.75 469.22,652.33 879.57,429.57 53.11,-28.83 118.01,-88.48 155.05,-134.67 195.69,-243.96 178.08,-565.62 -44.02,-790.46 -14.35,-14.51 -21.46,-24 -37.44,-36.77 -99.2,-79.19 -269.7,-152.98 -452.87,-123.01z"/>
  <path class="fil6" d="M2327.85 4005.57l-0.39 16.8 -4.6 31.29 4.33 392.97 169.32 0.89 -19.43 -68.53 -58.65 -13.29 -27.43 -168.5 56.23 -8.18 5.15 -132.83 -48.01 -24.78c-1.17,-25.06 24.79,-137.38 33.47,-165.61l55.42 5.35 21.81 -62.86c-12.63,-15.4 -24,-24.54 -34.34,-43.53 26.38,-43.26 51.59,-98.68 80.69,-143.28l50.26 15.45 50.7 -61.54c37.53,-45.88 32.1,-27.22 10.98,-82.36 10.18,-9.05 16.52,-17.64 27.33,-27.36l99.68 -83.73c15.24,10.9 17.85,19.91 32.93,32 28.12,-5.33 66.47,-40.69 100.45,-52.87l-1.87 -53.98c47.5,-9.5 122.09,-54.37 160.92,-55.48l13.25 36.72 123.08 -21.55c49.74,-12.7 -1.87,-39.97 54.77,-43.19l145.03 2.03 8.48 36.64 155.83 27.77c29.94,-27.66 -1.3,-34.95 81.34,-1.61 29.75,12 65.14,30.27 94.9,35.49 -2.67,38.83 -15.94,32.27 16.61,50.7 18.52,10.49 28.75,18.52 48.15,20.67 11.36,-42.5 34.36,-40.12 45.03,-62.42 -267.73,-183.09 -693.34,-202.12 -1000.7,-36.04 -211.79,114.46 -358.74,269.06 -461.74,483.95 -21.51,44.88 -81.04,228.89 -85.47,220.42 -0.55,-1.06 -2.3,2.93 -3.49,4.37z"/>
  <path class="fil0" d="M509.57 2251.71l-0.82 755c9.68,-0.47 118.79,-10.96 126.12,-13.51l-16.93 -1.68 3.32 -739.68 -20.02 -1.48c-5.05,-48.9 -6.29,-265.03 7.48,-301.58 15.92,-42.28 37.05,-60.56 75.79,-78.47 39.18,-18.1 26.66,2.18 40.43,-39.95 6.73,-20.61 14.7,-39 18.7,-58.92 -265.16,15.36 -217.76,245.4 -219.3,443.93 -0.25,32.04 6.04,31.69 -14.77,36.33z"/>
  <path class="fil1" d="M4050.46 3269.3c-25.52,-15.78 -27.77,-58.87 -27.65,-97.4 0.12,-39.55 1.72,-76.84 27.65,-95.2 38.63,19.86 46.27,167.24 0,192.59zm-549.8 -185.8c7.22,5.86 -4.69,3.43 18.82,9.14l227.8 60.41c40.64,17.48 71.59,27.81 110.65,50.43 20.34,11.77 30.36,18.2 50.32,29.51 20.29,11.5 31.55,19.96 49.44,25.02 -8.62,33.26 -3.3,66.23 -4.62,99.45 -1.18,29.37 11.74,14.69 -5.6,21.9l14.85 15.68 5.8 -115.94c0.23,-2.64 1.29,-3.2 2.02,-4.76 21.61,14.12 17.57,36.33 16.83,64.27 -0.34,12.94 -0.77,24.71 -0.97,37.46 -0.62,38.14 6.56,23.37 -9.24,33.2 0.31,0.26 3.76,4.26 8.5,7.33 9.26,5.97 6.63,4.4 13.52,6.59l-1.6 0.27c0.9,-42.39 -8.81,-91.11 5.18,-130.99l53.76 48.48c0.59,-1.13 2.4,2.48 3.45,3.84 -10.47,20.95 -20.12,20.1 -25.02,51.16l-2.07 62.22c3.17,10.01 -10.33,0.61 9.07,11.25 8.1,-31.1 -8.03,-118.15 33.64,-110.64 10.18,18 5.09,-6.13 2.68,13.6 -0.09,0.8 -4.79,13.53 -5.99,17.26 -8.15,25.26 -7.61,79.01 -0.7,100.58 27.83,-34.91 -26.91,-81.63 37.87,-112.97 -11.78,-178.13 44.73,-362.19 -139.46,-399.9l-446.4 -1.12 14.56 107.03 -37.09 0.21z"/>
  <path class="fil6" d="M756.05 3822.85c269.33,-28.98 485.72,170.33 510.82,406.36 29.29,275.36 -167.9,486.19 -405.34,514.16 -271.42,31.98 -486.79,-167.53 -515.46,-406.09 -30.99,-257.7 154.05,-486.9 409.98,-514.43zm552.62 547.1c22.5,-168.47 -27.91,-296.48 -102.63,-393.19 -78.7,-101.9 -186.94,-161.84 -313.89,-185.98 -363.31,-69.07 -702.22,305.1 -548.89,691.2 6.82,17.2 13.24,23.79 21.94,39.48 52.15,94.12 95.18,138.35 180.21,195.78 116.97,78.99 275.41,87.95 409.54,52.64 171.5,-45.13 329.15,-215.98 353.71,-399.93z"/>
  <path class="fil4" d="M3315.81 4322.21l31.58 -4.26 2.7 41.16c-34.82,2.43 -45.65,-10.93 -34.28,-36.91zm126.2 -12.09c-25.23,-58.54 51.73,-59.22 31.39,-2.4l-31.39 2.4zm-139.31 -250.73c137.92,-41.45 183.34,164.86 58.95,196.49 -137.47,34.95 -188.1,-157.68 -58.95,-196.49zm-135.38 81.69l3.56 7.05c3.14,3.66 16.52,-4.27 3.67,31.41 -27.62,11.82 -20.33,6.27 -51.13,-0.76l-2.76 -41.25c10.46,-7.41 14.68,-11.11 33.61,-13.55l13.04 17.1zm327.48 30.54c-7.04,-43.9 25.76,-43.98 37.4,-24.7 14.24,23.61 -9.59,37.06 -37.4,24.7zm-14.5 -124.19c-52.42,25.34 -51.42,-56.3 -2.14,-31.73 10.94,20.94 9.08,7.74 2.14,31.73zm-289.36 -44.23l0.73 2c0.67,-0.35 34.43,-22.7 40.32,3.27l4.69 31.73c-8.66,4.94 -20.04,19.41 -44.3,13.88 -21.28,-4.85 -17.99,-24.36 -16.15,-46.81l14.71 -4.08zm155.17 -10.06c-32.39,14.02 -43.34,-9.16 -29.87,-35.72 33.03,-7.88 46.71,3.93 29.87,35.72zm-180.14 307.48c5.01,-29.79 8.93,-36.99 27.6,-51.54 16.65,6.78 8.61,6.6 32.36,6.32l2.45 50.77c-16.82,7.52 -31.34,14.07 -49.24,9.39 21.98,44.09 178.93,112.96 302.35,4.01 26.53,-23.41 29.51,-28.7 46.12,-58.55 43.88,-78.88 28.48,-192.47 -32.98,-255.61 -132.31,-135.92 -365.65,-60.02 -384.52,129.79 -6.79,68.2 19.23,136.47 55.86,165.42z"/>
  <path class="fil7" d="M2718.33 4680.38c-8.64,-24.83 -96.84,-130.1 -129.89,-244.25 -67.14,-231.87 -65.7,-392.26 33.46,-618.33 46.9,-106.91 110.59,-173.67 185.57,-251.41l63.1 -53.77c210.78,-152.69 465.49,-207.63 723.93,-130.91 80.54,23.91 157.24,56.11 222.04,105.32 15.6,11.85 1.12,7.19 14.89,8.7 17.42,1.91 6.63,3.01 18.61,-5.75 -16.88,-7.39 -38.35,-24.22 -56.34,-37.89 -48.5,-36.87 -132.54,-76.97 -192.87,-97.53 -159.05,-54.23 -343.36,-58.94 -508.15,-10.91 -101.73,29.65 -235.12,102.34 -310.64,172.34 -44.63,41.37 -81.48,81.29 -113.95,127.17 -7.59,10.73 -12.73,15.69 -21.73,28.29 -145.88,204.4 -187.55,536.16 -82.72,769.13 22.26,49.47 36.65,88.2 63.23,128.55 18.36,27.89 64.98,93.98 91.45,111.28z"/>
  <path class="fil4" d="M800.48 4425.92c36.19,5 33.92,38.68 -5.42,35.66 -9.17,-19.16 -8.84,-21.06 5.42,-35.66zm124.21 -38.86c2.08,3.23 14.94,-5.22 2.56,28.97l-25.84 2.46c-7,-30.08 -3.01,-40.76 23.28,-31.44zm-217.46 25.3l-27.66 -0.08 -3.34 -28.87c27.2,-10.04 39.24,2.69 30.99,28.95zm14.71 -97.98c-37.54,-121.34 146.39,-158.04 171.61,-48.75 27.1,117.47 -139.11,153.79 -171.61,48.75zm257.52 -11.84c-46.42,14.69 -46.77,-43.51 -0.02,-28.71l0.02 28.71zm-341.8 -27.84c9.79,-4.32 -13.74,-7.16 14.54,-4.03 21.7,2.41 16.21,19.23 13.82,33.36 -17.55,3.38 -30.22,8.9 -33.19,-14.1 -3.38,-26.2 2.19,-9.63 4.83,-15.23zm263.75 -102.37c11.15,-14.5 22.02,-9.76 35.08,-4.66l-3.15 25.15 -27.72 3.38 -4.21 -23.87zm-189.47 16.65c-42.43,10.23 -46.9,-37.74 2.81,-27.55l-2.81 27.55zm80.12 -67.57c30.12,-14.93 42.44,1.58 29.26,22.25 -10.24,16.07 -40.6,9.81 -29.26,-22.25zm-18.21 -19.79c-111.18,21.05 -173.92,115.57 -154.98,221.56 42.56,238.17 410.28,189.05 374.78,-64.71 -14.02,-100.29 -104.14,-178.76 -219.8,-156.86z"/>
  <path class="fil8" d="M2817.73 4215.57c-37.88,-269.55 160.28,-540.35 454.07,-575.58 304.46,-36.51 541.14,190.06 573.87,458.07 19.67,161.06 -53.11,334.06 -141.97,413.28 -8.32,7.42 -3.31,2.53 -9.58,9 -18.29,18.88 -14.35,17.05 -35.31,32.37 -85.21,62.32 -150.56,101.07 -271.18,115.31 -275.87,32.56 -529.82,-167.14 -569.91,-452.44zm-24.09 -24.7c7.47,127.69 50.9,201.66 112.73,291.31 19.44,28.18 43.38,47.01 66.4,69.5 317.5,309.95 930.71,72.7 896.1,-440.13 -19.09,-282.91 -264.79,-519.65 -577.65,-497.65 -285.51,20.08 -515.86,264.55 -497.58,576.97z"/>
  <path class="fil8" d="M3179.13 4315.56c-10.08,-5.73 -4.06,6.14 -13.17,-14.94 -36.63,-28.95 -62.65,-97.22 -55.86,-165.42 18.88,-189.81 252.21,-265.71 384.52,-129.79 61.46,63.14 76.86,176.74 32.98,255.61 -16.61,29.85 -19.59,35.14 -46.12,58.55 -123.43,108.94 -280.38,40.08 -302.35,-4.01zm123.29 -417.94c-345.64,37.65 -302.37,570.77 68.62,527.79 133.99,-15.53 245.45,-144.16 226.32,-300.58 -15.86,-129.51 -143.29,-243.72 -294.93,-227.21z"/>
  <path class="fil7" d="M222.16 4645.97c-149.81,-268.4 -116.03,-564.44 70.43,-802.58 13.63,-17.4 26.09,-24.28 41.44,-38.5 44.45,-41.16 1.73,-17.27 87.97,-78.27 108.93,-77.05 212.39,-117.82 354.08,-131.91 130.66,-12.99 296.36,25.54 404.44,87.17 39.79,22.68 61.93,45.59 98.18,63.31l-45.66 -43.15c-1.01,-0.8 -2.43,-1.95 -3.44,-2.74l-46.77 -33.5c-39,-21.28 -71.16,-38.3 -115.88,-57.53 -165.24,-71.02 -403.71,-63.02 -568.35,20.84 -73.01,37.2 -160.46,91.89 -212.34,152.58l-98.49 136.94c-12.71,21.13 -18.8,34.78 -29.12,56.82 -81.07,173.17 -80.56,392.48 -9.67,568.48 22.38,55.55 92.51,173.17 138.48,204.54l-65.29 -102.53z"/>
  <polygon class="fil6" points="634.88,2993.21 698,2986 697.68,2251.71 621.27,2251.85 617.95,2991.53 "/>
  <path class="fil8" d="M362.67 4314.38c-14.32,-251.67 179.5,-461.23 414.01,-473.08 256.29,-12.95 457.39,176.79 473.09,412.62 8.59,129.12 -43.35,263.73 -113.4,327.97 -8.03,7.37 -5.28,4 -12.71,12.2l-44.97 41.54c-191.32,139.9 -437.62,118.82 -583.89,-34.27l-5.93 -6.47c-0.87,-0.93 -2.1,-2.28 -2.98,-3.21 -0.88,-0.94 -2.14,-2.26 -3.02,-3.19 -68.83,-73.17 -114.34,-171.05 -120.2,-274.11zm393.38 -491.53c-255.92,27.54 -440.96,256.73 -409.98,514.43 28.67,238.56 244.04,438.07 515.46,406.09 237.44,-27.97 434.63,-238.8 405.34,-514.16 -25.11,-236.03 -241.49,-435.34 -510.82,-406.36z"/>
  <polygon class="fil0" points="1824.37,4240.22 2150.29,4238.38 2150.59,4073.56 1823.69,4073.56 "/>
  <path class="fil0" d="M1827.01 4455.33l319.64 1.32c10.29,-42.87 4.7,-118.07 4.31,-164.09l-327.61 -0.52 3.66 163.29z"/>
  <path class="fil8" d="M773.83 4101.63c115.66,-21.9 205.78,56.56 219.8,156.86 35.49,253.76 -332.22,302.88 -374.78,64.71 -18.94,-105.99 43.81,-200.51 154.98,-221.56zm-193.46 237.46c21.75,106.22 134.66,207.98 273.91,177.72 290.36,-63.12 210.01,-506.2 -94.92,-448.54 -106.79,20.2 -207.3,132.54 -178.98,270.82z"/>
  <path class="fil9" d="M1836.24 3795.26l305.14 -0.13 3.03 -149.11 -305.32 -3.68c4.89,56.15 -11.82,86.89 -2.84,152.93z"/>
  <path class="fil6" d="M5014.83 4128.27c60.74,1.27 65.74,47.98 33.02,64.97 -0.68,0.37 -156.14,27.29 -172.25,-18.68 -11.69,-33.36 17.8,-39.2 17.81,-39.21 23.09,-13.43 89.84,-7.74 121.42,-7.08zm-220.28 -17.83c-20.08,33.8 -17.85,83.41 -2.16,105.49 37.81,33.17 112.23,21.44 172.51,21.46 57.7,0.01 135.04,10.07 179.18,-14.12l0 -120.38c-47.93,-21.54 -120.09,-13.64 -179.18,-13.64 -46.57,0 -149.77,-15.1 -170.35,21.19z"/>
  <path class="fil6" d="M5378.87 4128.27c60.74,1.27 65.74,47.98 33.02,64.97 -0.68,0.37 -156.14,27.29 -172.25,-18.68 -11.69,-33.36 17.8,-39.2 17.81,-39.21 23.09,-13.43 89.84,-7.74 121.42,-7.08zm-220.28 -17.83c-20.08,33.8 -17.85,83.41 -2.16,105.49 37.81,33.17 112.23,21.44 172.51,21.46 57.7,0.01 135.04,10.07 179.18,-14.12l0 -120.38c-47.93,-21.54 -120.09,-13.64 -179.18,-13.64 -46.57,0 -149.77,-15.1 -170.35,21.19z"/>
  <path class="fil6" d="M5742.9 4128.27c60.74,1.27 65.74,47.98 33.02,64.97 -0.68,0.37 -156.14,27.29 -172.25,-18.68 -11.69,-33.36 17.8,-39.2 17.81,-39.21 23.09,-13.43 89.84,-7.74 121.42,-7.08zm-220.28 -17.83c-20.08,33.8 -17.85,83.41 -2.16,105.49 37.81,33.17 112.23,21.44 172.51,21.46 57.7,0.01 135.04,10.07 179.18,-14.12l0 -120.38c-47.93,-21.54 -120.09,-13.64 -179.18,-13.64 -46.57,0 -149.77,-15.1 -170.35,21.19z"/>
  <path class="fil6" d="M6106.94 4128.27c60.74,1.27 65.74,47.98 33.02,64.97 -0.68,0.37 -156.14,27.29 -172.25,-18.68 -11.69,-33.36 17.8,-39.2 17.81,-39.21 23.09,-13.43 89.84,-7.74 121.42,-7.08zm-220.28 -17.83c-20.08,33.8 -17.85,83.41 -2.16,105.49 37.81,33.17 112.23,21.44 172.51,21.46 57.7,0.01 135.04,10.07 179.18,-14.12l0 -120.38c-47.93,-21.54 -120.09,-13.64 -179.18,-13.64 -46.57,0 -149.77,-15.1 -170.35,21.19z"/>
  <path class="fil6" d="M6470.97 4128.27c60.74,1.27 65.74,47.98 33.02,64.97 -0.68,0.37 -156.14,27.29 -172.25,-18.68 -11.69,-33.36 17.8,-39.2 17.81,-39.21 23.09,-13.43 89.84,-7.74 121.42,-7.08zm-220.28 -17.83c-20.08,33.8 -17.85,83.41 -2.16,105.49 37.81,33.17 112.23,21.44 172.51,21.46 57.7,0.01 135.04,10.07 179.18,-14.12l0 -120.38c-47.93,-21.54 -120.09,-13.64 -179.18,-13.64 -46.57,0 -149.77,-15.1 -170.35,21.19z"/>
  <path class="fil6" d="M6835 4128.27c60.74,1.27 65.74,47.98 33.02,64.97 -0.68,0.37 -156.14,27.29 -172.25,-18.68 -11.69,-33.36 17.8,-39.2 17.81,-39.21 23.09,-13.43 89.84,-7.74 121.42,-7.08zm-220.28 -17.83c-20.08,33.8 -17.85,83.41 -2.16,105.49 37.81,33.17 112.23,21.44 172.51,21.46 57.7,0.01 135.04,10.07 179.18,-14.12l0 -120.38c-47.93,-21.54 -120.09,-13.64 -179.18,-13.64 -46.57,0 -149.77,-15.1 -170.35,21.19z"/>
  <path class="fil0" d="M2230.52 4058.76l1.43 404.79 88.48 -0.83c7.64,-8.86 6.82,13.74 6.75,-16.1l-4.33 -392.97c-17.41,12.61 -64.37,7.38 -92.34,5.11z"/>
  <path class="fil0" d="M416.94 3014.03l55.82 -3.6 -3.95 -758.28 -48.94 1.03c1.54,127.84 0.27,254.97 0.27,381.45 0,70.11 8.85,332.09 -3.21,379.4z"/>
  <path class="fil7" d="M3302.69 4059.39c-129.15,38.81 -78.52,231.44 58.95,196.49 124.39,-31.63 78.97,-237.95 -58.95,-196.49z"/>
  <path class="fil0" d="M1620.65 2523.76c-24.3,-22.62 10.92,0.62 -14.61,0.04 -15.86,-0.36 -3.45,14.48 -15.65,-10.23 -8.15,-16.51 -7.58,-44.37 -7.54,-63.94l13.27 -402.87c5.48,-8.84 -3.51,11.71 7.56,-11.19 -0.94,1.56 -15.26,1.72 3.48,8.07 22.38,7.59 -5.98,13.56 14.29,-1.67 -4.36,-14.42 -11.01,-21.31 -7.66,-45.09 2.38,-16.87 9.39,-39.1 15.23,-53.56 13.58,-33.64 33.86,-58.43 63.17,-74.76 3.42,-10.33 3.92,-0.92 3.33,-18.67l-4.28 -19.56c-48.44,19.63 -87.95,70.7 -104.08,133.22 -3.58,13.9 -5.45,35.53 -9.11,46.36 -16.7,49.37 -32.96,-12.67 -32.93,155.39 0.01,52.02 -8.49,314.58 8.32,352.66 13.96,31.61 40.76,32.2 55.17,23.17 21.73,-13.63 7.86,-1.46 12.04,-17.36z"/>
  <polygon class="fil10" points="472.76,3010.43 508.75,3006.71 509.57,2251.71 468.82,2252.15 "/>
  <path class="fil5" d="M4041.54 3469.45l74.59 87.54c24.71,32.34 44.06,61.74 68.39,94.79l93.3 -51.95c-10.34,-29.11 -46.24,-77.5 -65.19,-95.53 -18.01,-27.28 -34.54,-49.33 -57.44,-67.22 -9.89,-28.61 -29.8,-26.72 -46.14,-59.8 -64.78,31.33 -10.05,78.05 -37.87,112.97 -6.91,-21.57 -7.45,-75.32 0.7,-100.58 1.2,-3.73 5.9,-16.47 5.99,-17.26 2.41,-19.73 7.5,4.41 -2.68,-13.6 -41.67,-7.51 -25.54,79.54 -33.64,110.64z"/>
  <path class="fil11" d="M1733.28 1813.47c85.27,-81.95 122.71,-100.38 259.62,-104.83l1061.72 -34.05c-355.77,7.63 -751.82,-10.83 -1092.68,-0.64 -103.24,3.08 -203.44,64.12 -228.67,139.52z"/>
  <path class="fil7" d="M721.94 4314.38c32.5,105.05 198.71,68.73 171.61,-48.75 -25.22,-109.29 -209.15,-72.6 -171.61,48.75z"/>
  <path class="fil7" d="M1620.65 2523.76c29.87,-28.07 17.06,-179.6 17.07,-241.14 0.01,-51.96 14.54,-210.99 -16.27,-240.66 -20.27,15.23 8.09,9.26 -14.29,1.67 -18.74,-6.35 -4.41,-6.51 -3.48,-8.07 -11.08,22.9 -2.08,2.35 -7.56,11.19l-13.27 402.87c-0.04,19.57 -0.61,47.42 7.54,63.94 12.2,24.72 -0.21,9.88 15.65,10.23 25.53,0.58 -9.69,-22.66 14.61,-0.04z"/>
  <path class="fil6" d="M1471.18 3378.56c17.54,-50.27 17.52,-251.72 19.9,-330.18 0.72,-23.82 13.05,-106.99 -30.79,-77.18 -13.69,9.31 -21.18,281.45 -21.99,330.41 -0.75,45.47 -15.7,81.62 32.88,76.96z"/>
  <path class="fil6" d="M1087.64 3014.12c-12.77,35.68 -12.9,258.49 -14.23,324.59 -0.54,27.39 -3.44,93.56 34.13,66.62 15.75,-11.28 15.21,-263.39 17.09,-320 1.65,-49.76 14.34,-76.35 -36.99,-71.2z"/>
  <path class="fil6" d="M932.78 3416.83c56.36,7.13 39.05,-53.63 40.79,-171.07 0.43,-29.54 12.36,-194.56 -1.77,-209.26 -52.04,-54.12 -39.37,118.67 -40.17,160.1 -1.03,53.36 -8.42,174.24 1.15,220.23z"/>
  <path class="fil6" d="M1183.47 3399.76c9.93,-29.32 13.53,-309.76 13.53,-363.72 0,-45.01 -43.68,-56.5 -43.47,18.11l-7.4 315.92c1.55,29.17 7.4,33.16 37.34,29.69z"/>
  <path class="fil6" d="M1234.7 2998.98c-11.3,25.32 -18.23,372.71 -8.27,395.74l26.36 0.39c9.49,-24.43 18.59,-272.59 20.19,-327.99 1,-35.09 10.65,-86.25 -38.29,-68.15z"/>
  <path class="fil6" d="M1296.46 3386.88l29.29 1.85c16.75,-37.24 11.75,-153.09 12.78,-204.48 0.71,-35.25 19.63,-193.13 -9.03,-200.7 -30.92,-8.18 -26.69,53.47 -26.84,77.13 -0.53,87.66 -18.25,251.92 -6.2,326.21z"/>
  <path class="fil6" d="M1002.28 3375.7c0,58.92 42.48,48.75 42.99,-5.55 0.37,-39.4 1.34,-78.56 1.98,-117.96 0.85,-52.05 9.08,-189.26 -2.5,-231.68 -54.28,-2.8 -37.4,34.35 -38.87,151.39 -0.86,67.78 -3.6,136.1 -3.6,203.79z"/>
  <path class="fil6" d="M604.5 3445.61c2.92,-34.08 9.67,-334.23 -2.62,-365.05 -57.77,-20.95 -38.52,65.32 -38.94,177.79 -0.59,154.95 -20.12,195.18 41.57,187.25z"/>
  <path class="fil6" d="M783.09 3394.22c-0.03,23.09 6.8,53.11 36.14,32.04 15.76,-11.33 9.39,-222.59 9.39,-248.19 0,-23.54 7.24,-109.61 -5.49,-122.82 -12.69,-13.17 -32.03,-3.99 -36.47,8.14l-3.57 330.82z"/>
  <path class="fil6" d="M1369.33 3381.52l30.16 0.92c9.9,-27.58 23.42,-373.39 14.96,-397.98 -42.51,-15.19 -37.65,21.89 -38.54,63.82 -1.37,64.54 -14.87,311.66 -6.58,333.25z"/>
  <path class="fil6" d="M639.54 3128.68c-0.03,54.03 -7.24,280.65 5.59,309.14 50.11,18.81 36.17,-49.59 36.2,-130.05 0.02,-45.16 10.83,-208.41 -10.26,-240.17 -38.46,-2.31 -31.49,23.05 -31.52,61.08z"/>
  <path class="fil6" d="M383.04 3464.74c16.5,-44.48 2.91,-314.47 2.09,-357.31 -62.93,-14.29 -41.14,44.43 -39.6,175.63 1.49,126.23 -17.04,185.49 37.51,181.68z"/>
  <path class="fil6" d="M490.84 3122.5c0.09,46.16 -8.22,300.56 13.07,330.74 47.85,2.91 30.59,-50.54 30.59,-164.01 0,-74.4 2.19,-129.37 -5.41,-202.22 -35.77,-4.37 -38.5,1.87 -38.25,35.48z"/>
  <path class="fil6" d="M416.49 3134.84l1.74 185.27c0.22,47.09 -14.85,156.56 36.24,135.39 12.92,-10.99 7.99,-305.57 5.47,-333.57 -3.72,-41.22 -43.46,-47.15 -43.46,12.91z"/>
  <path class="fil6" d="M857.11 3276.88l-0.18 111.17c0,19.75 -4.59,24.74 9.77,33.66 45.35,28.13 31.53,-79.41 31.82,-95.41l1.3 -283.27c-50.9,-3.54 -40.36,8.35 -41.31,91.81 -0.54,47.27 -1.4,94.8 -1.4,142.05z"/>
  <path class="fil6" d="M711.45 3134.84l0.37 292.58 19.45 14.27 22.33 -19.6 -0.25 -359.14 -29.81 -6.96c-15.64,25.37 -12.01,40.48 -12.08,78.85z"/>
  <path class="fil6" d="M306.19 3468.64c22.71,-28.25 5.43,-337.48 0.21,-352.32 -60.11,-26.22 -32.83,72.27 -32.54,160.54 0.11,36.86 0.5,74.33 1.22,111.19 0.91,46.91 -11.43,80.16 31.12,80.58z"/>
  <path class="fil11" d="M4893.42 4135.35c-0.01,0.01 -29.49,5.86 -17.81,39.21 16.1,45.97 171.56,19.04 172.25,18.68 32.72,-16.99 27.72,-63.69 -33.02,-64.97 -31.58,-0.67 -98.33,-6.35 -121.42,7.08z"/>
  <path class="fil11" d="M5257.45 4135.35c-0.01,0.01 -29.49,5.86 -17.81,39.21 16.1,45.97 171.56,19.04 172.25,18.68 32.72,-16.99 27.72,-63.69 -33.02,-64.97 -31.58,-0.67 -98.33,-6.35 -121.42,7.08z"/>
  <path class="fil11" d="M5621.48 4135.35c-0.01,0.01 -29.49,5.86 -17.81,39.21 16.1,45.97 171.56,19.04 172.25,18.68 32.72,-16.99 27.72,-63.69 -33.02,-64.97 -31.58,-0.67 -98.33,-6.35 -121.42,7.08z"/>
  <path class="fil11" d="M5985.52 4135.35c-0.01,0.01 -29.49,5.86 -17.81,39.21 16.1,45.97 171.56,19.04 172.25,18.68 32.72,-16.99 27.72,-63.69 -33.02,-64.97 -31.58,-0.67 -98.33,-6.35 -121.42,7.08z"/>
  <path class="fil11" d="M6349.55 4135.35c-0.01,0.01 -29.49,5.86 -17.81,39.21 16.1,45.97 171.56,19.04 172.25,18.68 32.72,-16.99 27.72,-63.69 -33.02,-64.97 -31.58,-0.67 -98.33,-6.35 -121.42,7.08z"/>
  <path class="fil11" d="M6713.58 4135.35c-0.01,0.01 -29.49,5.86 -17.81,39.21 16.1,45.97 171.56,19.04 172.25,18.68 32.72,-16.99 27.72,-63.69 -33.02,-64.97 -31.58,-0.67 -98.33,-6.35 -121.42,7.08z"/>
  <path class="fil1" d="M1820.24 3644.48c-3.33,32.33 -1.27,86.69 -0.44,120.96 1.34,54.48 33.06,37.32 86.66,37.44l185.45 0.5c16.69,0.32 47.47,4.36 56.89,-7.07 7.66,-20.83 16.48,-132.28 -3.76,-153.32 -16.6,-14.31 -293.34,-10.99 -324.8,1.49z"/>
  <path class="fil8" d="M1778.24 1982.91l85.84 1.02c1.78,-52.24 9.87,-87.92 -24.6,-109.23l-36.29 -5.49c-16.79,40.59 -24.66,50.48 -13.99,104.63 -5.43,10.58 12.93,7.38 -10.96,9.06z"/>
  <path class="fil5" d="M3998.77 3423.2c8.16,14.63 2.17,7.24 15,20.23 7.75,7.84 10.92,9.35 18.7,14.77l2.07 -62.22c4.9,-31.06 14.56,-30.22 25.02,-51.16 -1.05,-1.36 -2.86,-4.98 -3.45,-3.84l-53.76 -48.48c-13.99,39.88 -4.28,88.6 -5.18,130.99l1.6 -0.27z"/>
  <path class="fil7" d="M1771.47 2007.26l0.01 32.16c26.49,-5.97 26.14,0.43 25.24,31.81l9.33 -26.82c43.61,1.04 59.09,-17.34 58.03,-60.47l-85.84 -1.02c-2.61,1.66 -14.39,-6.17 -6.77,24.35z"/>
  <path class="fil5" d="M3962.31 3395.06c8.76,13.36 -6.54,1.29 14.44,14.23 15.8,-9.82 8.62,4.94 9.24,-33.2 0.21,-12.76 0.64,-24.52 0.97,-37.46 0.74,-27.94 4.78,-50.14 -16.83,-64.27 -0.73,1.57 -1.79,2.12 -2.02,4.76l-5.8 115.94z"/>
  <path class="fil12" d="M1771.47 2007.26c-7.62,-30.52 4.15,-22.69 6.77,-24.35 23.89,-1.69 5.53,1.52 10.96,-9.06 -10.67,-54.15 -2.79,-64.04 13.99,-104.63l-13.02 -3.43c-27.22,43.74 -24.92,58.95 -23.98,126.58l5.29 14.89z"/>
  <path class="fil6" d="M3848.12 3401.29l-0.34 12.63 13.03 6.22c11.97,-18.05 2.46,-15.9 15.56,-32.42 5.1,-6.44 21.57,-18.73 32,-24.36l0.51 -4 -5.53 -18.14 -14.87 0.51c-15.4,21.84 -10.78,5.45 -24.69,26.02 -10.04,14.86 -8.79,23.08 -15.66,33.54z"/>
  <path class="fil12" d="M3191.55 4263.62c24.01,-10.97 41.68,21.13 21.02,35.8 -29.46,20.91 -49.63,-22.76 -21.02,-35.8zm-25.59 37c9.11,21.08 3.09,9.21 13.17,14.94 17.9,4.68 32.42,-1.87 49.24,-9.39l-2.45 -50.77c-23.75,0.28 -15.71,0.46 -32.36,-6.32 -18.67,14.55 -22.59,21.74 -27.6,51.54z"/>
  <path class="fil12" d="M3190.93 4003.2l-14.71 4.08c-1.84,22.45 -5.14,41.96 16.15,46.81 24.27,5.53 35.64,-8.94 44.3,-13.88l-4.69 -31.73c-5.89,-25.97 -39.65,-3.62 -40.32,-3.27l28.23 2.31c17.01,29.42 -2.97,48.93 -31.32,32.2 -4.49,-16.8 -1.89,-23.38 2.36,-36.51z"/>
  <path class="fil0" d="M3346.1 3993.14c16.84,-31.79 3.16,-43.6 -29.87,-35.72 -13.47,26.56 -2.52,49.74 29.87,35.72z"/>
  <path class="fil0" d="M3191.55 4263.62c-28.6,13.05 -8.44,56.71 21.02,35.8 20.66,-14.67 2.99,-46.77 -21.02,-35.8z"/>
  <path class="fil0" d="M3442.01 4310.12l31.39 -2.4c20.34,-56.82 -56.62,-56.14 -31.39,2.4z"/>
  <path class="fil0" d="M3480.29 4047.43c6.94,-23.99 8.8,-10.8 -2.14,-31.73 -49.28,-24.57 -50.28,57.08 2.14,31.73z"/>
  <path class="fil0" d="M3494.79 4171.62c27.81,12.36 51.63,-1.09 37.4,-24.7 -11.64,-19.29 -44.43,-19.2 -37.4,24.7z"/>
  <path class="fil12" d="M3170.87 4148.13l-4.97 24.21c-15.79,6.99 -22.92,4.29 -36.07,-0.36l0.15 -24.35c15.81,-13.2 13.85,-15.65 37.32,-6.55l-13.04 -17.1c-18.93,2.45 -23.15,6.14 -33.61,13.55l2.76 41.25c30.8,7.03 23.51,12.58 51.13,0.76 12.85,-35.68 -0.53,-27.75 -3.67,-31.41z"/>
  <path class="fil0" d="M3170.87 4148.13l-3.56 -7.05c-23.47,-9.1 -21.51,-6.65 -37.32,6.55l-0.15 24.35c13.14,4.65 20.27,7.35 36.07,0.36l4.97 -24.21z"/>
  <path class="fil6" d="M3191.66 4005.19l-0.73 -2c-4.26,13.12 -6.85,19.71 -2.36,36.51 28.35,16.73 48.33,-2.78 31.32,-32.2l-28.23 -2.31z"/>
  <path class="fil0" d="M3315.81 4322.21c-11.37,25.98 -0.53,39.34 34.28,36.91l-2.7 -41.16 -31.58 4.26z"/>
  <path class="fil0" d="M637.65 4274.71c-2.63,5.6 -8.21,-10.97 -4.83,15.23 2.97,23 15.64,17.48 33.19,14.1 2.39,-14.12 7.87,-30.95 -13.82,-33.36 -28.28,-3.13 -4.74,-0.29 -14.54,4.03z"/>
  <path class="fil0" d="M792.04 4121.42c-11.34,32.06 19.02,38.32 29.26,22.25 13.18,-20.67 0.86,-37.18 -29.26,-22.25z"/>
  <path class="fil0" d="M979.45 4302.54l-0.02 -28.71c-46.75,-14.8 -46.4,43.39 0.02,28.71z"/>
  <path class="fil0" d="M800.48 4425.92c-14.26,14.6 -14.58,16.5 -5.42,35.66 39.34,3.02 41.6,-30.66 5.42,-35.66z"/>
  <path class="fil6" d="M924.69 4387.06c-26.29,-9.33 -30.28,1.36 -23.28,31.44l25.84 -2.46c12.38,-34.19 -0.48,-25.74 -2.56,-28.97z"/>
  <path class="fil6" d="M707.23 4412.36c8.25,-26.26 -3.8,-38.99 -30.99,-28.95l3.34 28.87 27.66 0.08z"/>
  <path class="fil0" d="M901.4 4172.34l4.21 23.87 27.72 -3.38 3.15 -25.15c-13.07,-5.1 -23.93,-9.84 -35.08,4.66z"/>
  <path class="fil6" d="M711.93 4188.99l2.81 -27.55c-49.71,-10.19 -45.24,37.79 -2.81,27.55z"/>
  <path class="fil6" d="M3908.62 3410.13l-0.17 -22.12c-17.92,-9.17 -5.34,-9.28 -18.79,5.46 -6.86,7.54 -6.99,15.76 -7.07,16.03l26.03 0.63z"/>
  <path class="fil1" d="M1826.85 3864.62c-13.99,16.82 -5.4,144.01 -3.28,154.98l249.73 -0.59c12.02,0.14 33.78,2.1 43.7,1.72 22.18,-0.84 31.94,-0.19 36.17,-27.83 5.73,-37.45 2.74,-115.08 -9.64,-143.56 -38.1,-2.47 -120.05,4 -169.1,3.99 -36.07,-0.01 -153.49,-8.56 -147.58,11.27z"/>
  <g id="_1398071280">
   <path class="fil13" d="M10213.82 4409.72c76.07,-113.69 120.8,-108.39 220.14,-108.33 57.26,0.04 91.43,-9.76 137.72,20.64 39.16,25.71 56.46,49.36 83.91,86.99 10.86,48.83 32.97,56.52 33.93,128.37 3.57,265.73 -342.11,360.04 -473.25,140.77 -61.56,-102.92 -41.49,-165.99 -2.45,-268.44zm-1381.39 -7.01c48.57,-105.34 140.13,-100.43 209.12,-100.36 69.64,0.07 180.35,-2.6 213.18,105.85 101.19,100.3 28,386.23 -204.52,392.28 -255.13,6.65 -315.48,-300.76 -217.78,-397.77zm2732.36 8.75c38.75,-80.82 94.49,-110.6 201.38,-110.15 51.9,0.22 103.05,-8.65 143.16,14.94 47.86,28.15 67.58,37.14 80.51,82.35 101.52,77.32 50.34,391.69 -189.08,401.74 -186.95,7.85 -341.66,-170.9 -235.97,-388.87zm-4104.26 -3.28c31.81,-48.5 38.45,-53.99 80.41,-82.52 49.49,-33.66 69.57,-23.43 134.01,-23.29 118.94,0.26 171.05,8.35 221.07,99.03 40.6,92.86 70.24,153.51 10.82,265.25 -124.18,233.52 -476.29,140.98 -480.09,-120.56 -1.11,-75.91 23.52,-87.99 33.8,-137.91zm3424.65 -106.57l446.03 2.64c-20.73,130.31 -111.34,196.48 -3.84,457.74 23.26,56.54 64.92,113.09 115.47,159.37 71.07,65.07 122.55,73.57 161.5,96.43 14.08,8.27 10.9,6.05 19.95,14.17 -146.47,15.65 -644.43,-9.19 -863.71,-9.88 -20.27,-0.07 -40.41,1.05 -60.36,1.19 -43.94,0.31 -48.62,-2.16 -65.68,-17.69 87.67,-26.91 163.82,-98.77 214.55,-172.86 176.49,-257.75 50.65,-435.77 36.09,-531.12zm-653.42 705.08c-32.36,26.09 -195.37,10.33 -236.16,9.99 -82.94,-0.68 -166.17,-2.95 -249.25,-3.67 -152.78,-1.33 -330.29,3.47 -479.71,-6.25 7.57,-14.89 77.27,-50.77 140.49,-111.62 125.6,-120.87 170.47,-309.65 123.68,-485.02 -8.7,-32.63 -28.68,-70.69 -34.87,-105.75l485.3 -0.32c-5.66,34.54 -23.22,58.28 -33.93,99.42 -66.96,257.03 60.79,524.54 284.44,603.22zm-2097.13 -704.69l455.84 1.91c-15.29,88.61 -105.74,188.54 -17.32,428.43 19.92,54.07 64.78,122.65 97.59,159.12 23.41,26.04 42.19,37.57 70.01,58.83 42.08,32.15 68.9,36.18 77.1,59.42l-915.51 4.25c15.01,-30.1 1.45,-12.93 36,-32.69 18.42,-10.53 25.03,-14.04 41.79,-26.36 27.68,-20.36 46.04,-36.23 69.53,-59.59 121.99,-121.26 164.71,-307.26 121.45,-484.88 -9.69,-39.8 -32.6,-75.82 -36.48,-108.44zm3372.14 355.94c31.34,62.78 94.86,133.1 167.19,161.09 127.36,49.28 172.44,6.06 272.31,-19.06l21.88 -26.06c100.64,-100.19 153.13,-216.28 80.87,-363.39 -36.54,-74.39 -60.52,-68.09 -78.77,-106.06 171.69,6.96 122.82,-16.66 182.71,-23.37 144.49,188.83 88.74,478.96 -65.04,604.28 -127.35,103.78 -306.22,156.33 -474.62,81.17 -27.58,-12.32 -44.66,-20.02 -68.57,-34.92 -36.23,-22.59 -42.54,-22.05 -63.05,-54.93 -32.82,-16.83 -108.65,-110.82 -114.44,-168.83 -42.83,-44.07 -41.15,-161.43 -36.1,-213.19 7.54,-77.19 38.16,-133.95 65.11,-189.2l200.52 -0.19c-14.08,28.07 -34.22,37.35 -52.14,62.51 -79.52,111.63 -53.18,200.54 -37.87,290.16zm-2712.25 55.63c49.67,40.26 62.45,77.76 149.88,109.26 107.09,38.58 190.46,-9.75 224.93,-1.47 20.14,-23.17 34.16,-27.56 57.19,-46.86 55.11,-46.21 97.21,-108.9 108.35,-185.73 25.68,-177.16 -87.83,-250.83 -105.29,-283.4l180.16 1.75c2.36,0.38 4.89,1.12 6.94,1.56 59.47,12.53 157.28,302.59 -24.28,528.55 -41.37,51.49 -126.92,117.91 -210.31,141.76 -88.71,25.36 -137.33,27.25 -224.75,12.76 -8.79,-1.46 -27.07,-4.26 -35.64,-6.91l-36.56 -20.64c-103.02,-8.28 -277.45,-195.61 -276.89,-309.27 -64.42,-80.97 11.67,-287.28 47.12,-348.3l199.58 -1.17c-16.93,46.67 -71.99,46.01 -100.69,175.79 -26.24,118.69 17.08,148.37 40.27,232.33zm1392.19 -1.36c43.86,47.44 73.5,83.87 150,111.51 107.37,38.8 147.47,1.11 231.64,-9.48 59.29,-57.25 232.28,-162.16 134.64,-391.25 -17.29,-40.57 -28.48,-53.75 -59.31,-86.5 -26.12,-27.76 -11.51,0.1 -22.52,-31.82l200.47 0.98c95.3,188.71 98.2,363.11 -37.72,530.4 -44.25,54.45 -110.61,111.55 -209.98,142.39 -84.05,26.09 -145.64,28.59 -231.4,12.4 -63.85,-12.04 -55.63,-13.1 -71.92,-31.78 -58.42,4.04 -160.26,-95.91 -184.71,-124.88 -41.53,-49.21 -99.98,-143.41 -94.48,-221.37 -22.52,-28.63 -10.17,-136.56 -2.94,-167.87 12.9,-55.92 37.32,-97.13 58.83,-138.91l203.92 -0.59c-19.96,31.28 -75.87,57.26 -104.36,168.53 -26.06,101.82 6.64,162.62 39.87,238.24zm-2789.39 -80.33c29.9,78.36 79.33,137.94 147.54,173.31 40.52,21.01 79.66,33.53 129.93,34.15 70.75,0.88 95.92,-20.52 142.59,-25.24 1.59,-1.77 4.15,-6.72 5.03,-5.12l20.51 -17.58c31.88,-24.04 45.03,-31.44 74.74,-70.89 66.41,-88.18 77.09,-196.71 35.04,-296.44 -37.48,-88.91 -64.14,-77.27 -82.22,-119.36l199.71 1.09c73.69,160.06 111.65,302.05 -7.95,490.22 -127.62,200.8 -418.96,284.56 -658.92,107.89 -131.36,-96.71 -207.65,-288.32 -166.05,-460.39 25.68,-106.23 66.74,-141.17 111.04,-209.89 50.11,11.22 -12.81,23.71 150.16,71.71 -33.92,53.81 -136.95,91.34 -101.17,326.53zm-769.5 -262.62c-18.55,-1.56 -52.94,-14.04 -61.69,-37.32 -104.11,-49.35 -100.73,-227.21 -31.86,-307.58 182.69,-213.2 502.08,21.71 373.31,252.19 -25.46,45.57 -53.91,74.57 -108.94,98.04 -37.56,16.02 -93.03,25.29 -135.85,14.44 -30.36,-7.69 -19.25,-2.94 -34.97,-19.77zm6090.92 12.47c-61.67,-2.43 -141.8,-82.81 -147.96,-140.35 -33.74,-34.35 -18.09,-120.75 0,-163.24 64.1,-150.51 260.69,-176.9 365.35,-74.9 92.65,90.29 100.76,288.98 -63.24,368.97 -40.14,19.59 -111.75,36.52 -154.16,9.52zm126.76 46.28c-25.19,49.13 -211.23,172.39 -272.77,228.11 -92.51,83.76 -401.61,299.3 -508.61,315.87 8.71,-11.11 3.26,-6 14.79,-16.57 10.45,-9.59 9.69,-7.89 20.71,-15.85 198.62,-143.35 256.42,-448.43 94.9,-694.42l216.32 -318.46 232.86 1.6c-15.3,25.53 -193.17,122.19 -114.24,336.59 46.34,125.9 178.02,186.2 316.06,163.14zm-6006.36 -495.14l324.99 -0.97c29.2,24.57 133.31,196.42 161.39,244.44 -19.34,45.2 -175.83,161.99 -145.94,424.91 14.81,130.29 77.36,250.31 177.15,331.85 22.35,18.27 23.97,12.06 43.93,36.98 -129.55,-7.04 -349.9,-176.16 -437.52,-236.27 -78.48,-53.84 -324.93,-239.81 -357.73,-317.39 84.3,19.86 140.69,31.89 219.45,-7.8 158.47,-79.86 202.58,-276.65 84,-420.52 -9.08,-11.01 -60.81,-53.34 -69.73,-55.23zm5600.88 -48.96c21.47,-59.68 56.69,-40.88 125.51,-39.28 134.46,3.15 329.8,-12.24 425.13,69.79 134.57,115.79 142.59,329.94 20.94,475.9 -115.32,138.37 -570.43,484.36 -749.81,583.34 -185.7,102.47 -279.41,128.36 -521.38,140.39 -221.3,11 -448.18,-2.12 -670.42,-3.2 -898.28,-4.36 -1749.32,-28.36 -2647.28,-14.29 -217.77,3.41 -442.44,4.35 -660.04,-1.85 -236.71,-6.73 -359.98,-10.05 -562.09,-108.61 -138.54,-67.56 -279.88,-175.44 -396.44,-264.95 -164.13,-126.04 -443.02,-354.85 -410.74,-594.54 13.65,-101.29 74.49,-170.46 126.04,-211.98 86.75,-69.9 147.71,-67.13 270.21,-67.74 71.88,-0.36 274.55,-8.76 331.91,5.51l23.91 43.08c-106.3,3.74 -216.14,-0.59 -321.45,-0.26 -123.6,0.37 -177.94,-8.63 -265.14,50.17 -57.29,38.64 -107.6,107.34 -117.92,197.42 -28.75,250.8 401.04,549.59 592.88,683.16 262.44,182.74 404.75,215.76 744.23,218.94 645.51,6.04 1299.4,-16.82 1934.14,0.83 417.26,11.61 846.38,5 1263.15,16.09 207.07,5.51 429.13,8.58 636.12,6.28 444.2,-4.92 584.27,-79.59 937.56,-349.36l356.11 -288.98c131.91,-126.92 205.43,-298.1 85.83,-446.98 -117.23,-145.93 -467.41,-58.51 -550.97,-98.9zm-79.43 32.47l-144.02 220.06c-78.05,112.89 -72.98,125.36 -244.09,125.08l-4392.1 0c-179.6,0.19 -156.42,-20.23 -236.23,-133.07 -29.99,-42.39 -130.42,-191.09 -140.35,-231.85 -22.3,-16.77 -56.67,-74.04 -65.55,-102.77l5302.33 0.02c-13.49,36.08 -59.48,98.29 -79.99,122.52zm-4739.64 -336.98c84.91,-12.75 282.54,0.02 380.6,0.55 875.26,4.75 1775.08,2.66 2647.52,-10.51l1873.86 -22.41c105.82,-1.84 260.01,-22.93 359.22,1.88 168.48,42.14 326.38,189.91 433.08,321.1 1.65,1.57 3.66,3.88 4.67,5.01l88.66 119.78c50.48,108.35 -157.17,192.88 -218.52,149.92 -57.48,-40.26 -42.04,-77.04 -67.48,-138.18 -99.35,-238.66 -331.57,-211.71 -622.36,-214.41 -39.29,-57.37 -50.91,-41.44 -132.35,-40.9l-1186.12 0.19c-237.64,-0.26 -3968.33,-10.53 -4077.24,2.99l-22.62 40.26c-291.31,6.7 -696.02,-91.85 -745.19,384.79 -46.99,14.74 -141.83,-49.14 -129.45,-130.29 16.22,-106.32 280.6,-348.79 396.55,-411.89 166.81,-90.76 276.95,-65.61 478.1,-65.97 104.17,-0.19 470.46,-13.02 539.07,8.07zm-357.45 -555.63c16.9,-21.06 -0.66,-12.59 41.21,-14.07l644.52 2.04 1.03 511.51c-66.61,16.45 -271.75,1.63 -352.67,-0.9 -39.87,-1.25 -321.58,5.67 -332.24,-16.84l-1.85 -481.74zm1276.98 176.12c75.95,-13.07 828.5,-0.29 991,-2.99 326.73,-5.42 655.01,-5.93 979.95,-12.16 322.67,-6.18 647.56,-10.16 971.48,-16.71 120.73,-2.44 359.75,-34.87 444.89,28.97 27.43,20.56 90.03,97.29 117.16,132.63 38.01,49.51 65.5,93.03 102.02,136.67l10.13 26.59c-131.15,13.31 -328.5,1.56 -468.48,3.09l-1400.78 19.54c-623.93,6.21 -1262.59,20.68 -1885.69,8.31 45.77,-186.5 1.45,-255.84 24.51,-332.43 32.71,-3.81 92.67,-5.14 113.81,8.48zm-563.6 -185.46c41.14,-5.79 296.07,-7.36 333.89,-0.62 96.23,17.16 68.14,154.98 68.18,259.43 0.06,100.88 29.3,243.44 -76.1,250.81 -72.45,5.07 -254.69,4.87 -326.68,-3.55l0.71 -506.06zm-1093.78 198.6c-0.69,-151.97 -25.01,-201.32 138.62,-201.32l209.63 2.11 1.08 498.34c-62.03,3.99 -285.26,9.7 -324.3,-13.12 -49.2,-43.11 -24.65,-201.36 -24.99,-277.4l-0.04 -8.6zm1782.12 -168.7c169.5,0.68 345.81,18.76 522.45,18.6l1593.75 -9.63 -1.09 75.8c-343.18,21.11 -712.54,-8.23 -1054.36,12.05 -173.43,10.29 -870.13,7.14 -1063.07,1.31l2.32 -98.14zm-237.34 101.62c-2.87,-69.75 -3.88,-98.06 -43.26,-151.42l224.5 40.18 -0.52 109.15 -180.72 2.09zm230.12 -1388.07c109.84,-43.06 721.23,-49.73 882.23,-52.4 308.75,-5.13 620.23,-7.39 927.69,8.87 184.24,9.75 283.48,-0.68 374.29,92.57 229.2,235.4 436.1,673.67 401.32,1007.44 -21.82,109.19 -67.78,152.12 -186.67,163.24 -495.89,46.37 -1878.12,45.93 -2307.34,17.58 -230.26,-15.21 -615.71,-95.71 -759.2,-261.1 -119.88,-138.18 365.78,-722.65 459.77,-843.96 46.61,-60.14 118.42,-114.52 207.92,-132.24zm2640.49 405.81l-20.42 -57.82c418.03,-71.6 912.12,-191.75 1347.41,-278.42 97.61,-19.43 363.96,-90.23 450.32,-88.49 13.53,-13.01 -7.61,-11.56 33.23,-9.96l47.54 251.15 -1806.82 374.55c-15.12,-74.71 -15.55,-118.22 -51.26,-191.01zm-60.41 1.46c15.7,14.84 3.26,-0.82 15.81,21.8 20.24,36.44 37.61,121.31 42.27,163.23 6.14,55.29 11.92,157.71 -19.88,197.53 -9.25,-24.81 -22.13,-101.3 -29.82,-129.28 -47.88,-174.27 -77.44,-198.64 -132.75,-340.69l-84.74 -134.76c69.65,24.54 199.23,150.31 209.11,222.16zm1943.2 -508.86c34.03,-49.55 101.33,-50.9 178.02,-66.36l411.46 -85.77c82.32,-18.03 138.04,-5.2 159.66,57.7l16.71 43.84c3.31,14.64 6.15,29.94 9.35,43.98 21.88,95.83 63.14,207.22 -21.61,246.69 -27.01,29.47 -283.31,71.11 -348.13,84.75 -69.01,14.54 -295.94,83.87 -333.64,35.16 -50.35,-34.97 -59,-95.6 -73.84,-169.48 -11.7,-58.29 -42.16,-138.2 2.02,-190.51zm-3964.02 -129.06c-0.02,-67.63 48.38,-76.02 107.57,-75.47l473.1 -2.17c91.87,0.05 249.54,-17.55 270.85,47.83 13.36,40.97 7.62,112.35 -9.55,149.53 -117.74,-0.02 -766.36,-6.48 -818.05,17.85 -30.96,-56.91 -23.92,-61.2 -23.92,-137.58zm-992.13 -893.8c42.19,24.42 31.46,46.7 106.68,29.15 -31.03,62.82 -104.12,34.67 -106.68,-29.15zm-1384.48 2840.58c9.95,12.85 -0.74,-10.57 12.48,18.14 6.78,14.72 2.17,8.14 2.85,19.51l-34.4 2.72c-206.41,-11.6 -415.84,193.63 -509.76,287.01 -55.69,55.36 -140.05,135.37 -162.26,234.75 -22.44,100.41 72.54,188.42 189.89,194.53 51.02,228.97 333.4,459.62 511.73,589.39 246.6,179.44 394.9,297.4 771.2,320.85 346.92,21.61 730.78,6.94 1084.06,4.29 725.47,-5.45 1431.63,12.59 2157.27,14.98 179.32,0.59 368.39,-0.37 541.09,7.5 558.49,25.44 790.57,-29.12 1240.97,-394.78 194.21,-157.66 492.9,-337.57 500.73,-592.05 52.04,19.66 57.41,42.03 131.77,27.93 77.51,-14.69 244.3,-101.26 187.88,-229.17 -38.44,-87.15 -201.13,-258.8 -267.93,-315.77 -105.75,-90.2 -232.34,-180.18 -409.01,-185.71 -139.1,-4.35 -453.26,35.38 -576.07,6.76 -58.18,-98.74 -114.37,-174.8 -187.24,-256.53 -111,-124.5 -139.85,-117.79 -328.46,-115.34 -136.27,1.78 -786.51,25.52 -864.17,12.15 -2.76,-91.68 -45.26,-81.11 219.53,-94.38 316.03,-15.83 222.69,-297.93 246.08,-380.46 11.09,-39.12 27.35,-63.11 38.78,-114.86 8.52,-38.55 8.83,-98.14 19.98,-134.87l1673.38 -346.72c58.93,-12.34 131.79,-45.62 175.84,-6.95 88.35,77.54 246.04,13.06 360.87,-9.35 453.13,-88.43 503.39,-56.08 436.44,-390.57 -28.55,-142.64 -68.51,-231.95 -238.64,-192.4l-554.46 117.38c-80.06,28.16 -74.61,92.32 -113.16,108.55l-369.91 77.8c-41.36,8.83 -1430.81,302.74 -1487.68,303.87 -105.96,-159.86 -254.77,-187.99 -294.02,-222.01 -111.48,-96.64 -57.92,-152.68 -349.06,-169.07 -81.72,-4.6 -247.28,-27.55 -325.62,-12.57 -43.98,6.5 -126.29,8.18 -168.02,-7.31 -1.26,-26.34 2.65,-59.61 2.6,-89.61 -0.08,-43.37 -5.79,-57.62 -9.8,-96.08 -29.25,-80.06 -170.85,-55.26 -255.49,-55.33 -103.13,-0.1 -206.28,0.02 -309.42,0.02 -364.87,0 -360.94,-28.3 -346.02,251.55 -126.83,7.11 -250.43,9.39 -375.64,20.27 -250.99,21.82 -253.53,71.72 -307.09,76.56 -2.23,-278.66 -50.73,-663.83 -132.08,-928.07 -12.51,-40.65 -40.14,-100.9 -27.98,-130.76 14.61,-35.88 53.31,-64.34 21.56,-131.79 -5.28,3.13 -19.1,10.37 -23.93,13.16 -41.56,-1.73 3.05,-4.6 -38.11,-19.3l-42.79 -7.84c-31.59,-32.45 1.41,-22.54 -26.39,-24.53 -48.49,14.86 -47.86,120.85 -7.77,163.5 29.96,31.88 47.55,18.25 68.5,42.51 29.16,33.76 104.25,387.26 114.43,445.62 13.54,77.66 78.93,555.27 44.96,625.05 -0.04,0.08 -311.03,363.73 -465.71,661.11 -58.22,111.93 -123.35,231.36 -11.82,324.45 138.52,115.62 160.51,97.13 285.86,163.27 -37.89,28.13 -27.88,10.32 -27.95,10.33l-1186.03 0.26c-88.59,-0.11 -142.98,-6.04 -185.04,53.77 -42.11,59.88 -26.96,360.28 -21.8,454.66z"/>
   <path class="fil14" d="M11243.53 2814.32c-210.34,-32.35 12.75,-249.64 -270.14,-657.44 -175.35,-252.75 -269.62,-300.54 -608.18,-310.73 -480.2,-14.46 -886.37,-23.18 -1366.64,-9.67 -183.51,5.16 -403.6,56.59 -340.57,-78.63 -89.5,17.72 -161.31,72.1 -207.92,132.24 -94,121.31 -579.65,705.78 -459.77,843.96 143.49,165.39 528.94,245.88 759.2,261.1 429.23,28.35 1811.45,28.78 2307.34,-17.58 118.89,-11.12 164.85,-54.05 186.67,-163.24z"/>
   <path class="fil14" d="M12360.59 3916.34l-4513.75 -10.62c-108.83,-0.49 -217.75,0.06 -326.62,0.06 -48.54,0 -276.83,11.58 -316.42,-9.2 9.93,40.75 110.36,189.45 140.35,231.85 79.82,112.84 56.63,133.26 236.23,133.07l4392.1 0c171.11,0.27 166.04,-12.19 244.09,-125.08l144.02 -220.06z"/>
   <path class="fil14" d="M13315.22 3869.99c-6.4,6.67 5.14,26.46 -83.23,-0.21 -48,-14.48 -147.07,-81.72 -190.47,-109.96 -82.81,-53.87 -139.75,-131.67 -254.15,-148.72 -254.33,-37.91 -2124.76,20.07 -2362.02,21.28l-2776.21 1.29c-65.89,-0.36 -131.81,-0.75 -197.68,-1.4 -88.85,-0.87 -145.94,14.5 -156.4,-40.84 78.56,-37.86 231.39,-4.86 325.88,-12.07 -68.62,-21.09 -434.9,-8.26 -539.07,-8.07 -201.14,0.37 -311.29,-24.79 -478.1,65.97 -115.95,63.1 -380.32,305.57 -396.55,411.89 -12.38,81.15 82.46,145.03 129.45,130.29 49.17,-476.64 453.88,-378.09 745.19,-384.79l22.62 -40.26c108.91,-13.52 3839.6,-3.25 4077.24,-2.99l1186.12 -0.19c81.44,-0.53 93.06,-16.47 132.35,40.9 290.79,2.7 523.01,-24.25 622.36,214.41 25.45,61.14 10,97.91 67.48,138.18 61.35,42.96 269,-41.57 218.52,-149.92l-88.66 -119.78c-1.01,-1.13 -3.02,-3.44 -4.67,-5.01z"/>
   <path class="fil14" d="M12146.97 3466.26l-2.6 20.02 -139.63 -4.24c-254.11,-303.17 -212.01,-252.86 -710.95,-233.01 -314.16,12.51 -635.98,8.98 -954.39,12.2 -314.78,3.2 -637.87,10.61 -954.04,12.92 -304.46,2.22 -645.17,24.58 -953.88,9.73l-3.67 -87.28c39.18,2.22 75.77,11.29 112.67,3.24 -21.13,-13.62 -81.1,-12.29 -113.81,-8.48 -23.06,76.59 21.27,145.93 -24.51,332.43 623.1,12.37 1261.76,-2.1 1885.69,-8.31l1400.78 -19.54c139.98,-1.54 337.33,10.22 468.48,-3.09l-10.13 -26.59z"/>
   <path class="fil15" d="M7203.8 3896.58c39.59,20.79 267.88,9.2 316.42,9.2 108.87,0 217.79,-0.54 326.62,-0.06l4513.75 10.62c20.52,-24.23 66.51,-86.43 79.99,-122.52l-5302.33 -0.02c8.88,28.73 43.25,86 65.55,102.77z"/>
   <path class="fil16" d="M12440.02 3883.88c83.55,40.39 433.74,-47.03 550.97,98.9 119.6,148.88 46.07,320.06 -85.83,446.98l-356.11 288.98c-353.29,269.77 -493.36,344.44 -937.56,349.36 -206.99,2.3 -429.05,-0.77 -636.12,-6.28 -416.76,-11.09 -845.89,-4.48 -1263.15,-16.09 -634.74,-17.66 -1288.63,5.2 -1934.14,-0.83 -339.49,-3.18 -481.8,-36.2 -744.23,-218.94 -191.84,-133.58 -621.62,-432.37 -592.88,-683.16 10.32,-90.08 60.63,-158.78 117.92,-197.42 87.2,-58.8 141.53,-49.8 265.14,-50.17 105.31,-0.33 215.14,4 321.45,0.26l-23.91 -43.08c-57.37,-14.27 -260.04,-5.87 -331.91,-5.51 -122.5,0.61 -183.46,-2.16 -270.21,67.74 -51.55,41.53 -112.39,110.7 -126.04,211.98 -32.29,239.69 246.61,468.5 410.74,594.54 116.56,89.51 257.9,197.39 396.44,264.95 202.11,98.56 325.38,101.88 562.09,108.61 217.6,6.2 442.27,5.26 660.04,1.85 897.96,-14.07 1749,9.93 2647.28,14.29 222.24,1.08 449.12,14.2 670.42,3.2 241.97,-12.03 335.68,-37.92 521.38,-140.39 179.38,-98.98 634.49,-444.96 749.81,-583.34 121.65,-145.97 113.63,-360.12 -20.94,-475.9 -95.34,-82.03 -290.68,-66.64 -425.13,-69.79 -68.81,-1.6 -104.03,-20.4 -125.51,39.28z"/>
   <path class="fil15" d="M8658 1757.84c-63.03,135.23 157.06,83.8 340.57,78.63 480.27,-13.51 886.43,-4.79 1366.64,9.67 338.56,10.2 432.83,57.98 608.18,310.73 282.89,407.79 59.8,625.08 270.14,657.44 34.78,-333.77 -172.11,-772.04 -401.32,-1007.44 -90.81,-93.26 -190.04,-82.82 -374.29,-92.57 -307.46,-16.25 -618.94,-13.99 -927.69,-8.87 -161.01,2.67 -772.4,9.34 -882.23,52.4z"/>
   <path class="fil14" d="M11298.49 2163.65c35.71,72.79 36.14,116.3 51.26,191.01l1806.82 -374.55 -47.54 -251.15c-40.84,-1.59 -19.7,-3.05 -33.23,9.96 32.86,-1.66 27.02,-4.16 30.2,29.11 -38.93,22.5 -372.89,88.24 -445.35,103.47l-1362.16 292.15z"/>
   <path class="fil17" d="M10231.76 5006.68c-223.65,-78.68 -351.4,-346.19 -284.44,-603.22 10.71,-41.14 28.27,-64.89 33.93,-99.42l-485.3 0.32c6.2,35.06 26.18,73.12 34.87,105.75 46.79,175.37 1.92,364.16 -123.68,485.02 -63.23,60.85 -132.92,96.72 -140.49,111.62 149.41,9.72 326.93,4.92 479.71,6.25 83.08,0.72 166.31,2.99 249.25,3.67 40.79,0.34 203.79,16.1 236.16,-9.99z"/>
   <path class="fil15" d="M7620.94 3579.37c-94.49,7.21 -247.32,-25.79 -325.88,12.07 10.46,55.34 67.55,39.97 156.4,40.84 65.87,0.65 131.79,1.04 197.68,1.4l2776.21 -1.29c237.26,-1.22 2107.69,-59.2 2362.02,-21.28 114.4,17.05 171.34,94.85 254.15,148.72 43.39,28.24 142.47,95.48 190.47,109.96 88.36,26.66 76.83,6.88 83.23,0.21 -106.7,-131.19 -264.6,-278.96 -433.08,-321.1 -99.21,-24.82 -253.39,-3.72 -359.22,-1.88l-1873.86 22.41c-872.44,13.17 -1772.26,15.26 -2647.52,10.51 -98.06,-0.53 -295.69,-13.3 -380.6,-0.55z"/>
   <path class="fil17" d="M11331.21 4304.25l-446.03 -2.64c14.56,95.35 140.4,273.36 -36.09,531.12 -50.73,74.1 -126.88,145.96 -214.55,172.86 17.06,15.53 21.74,18 65.68,17.69 19.94,-0.14 40.09,-1.26 60.36,-1.19 219.29,0.68 717.24,25.53 863.71,9.88 -9.05,-8.13 -5.88,-5.9 -19.95,-14.17 -38.94,-22.86 -90.42,-31.36 -161.5,-96.43 -50.55,-46.28 -92.21,-102.82 -115.47,-159.37 -107.5,-261.26 -16.89,-327.42 3.84,-457.74z"/>
   <path class="fil17" d="M8590.46 4303.9l-455.84 -1.91c3.88,32.62 26.79,68.64 36.48,108.44 43.26,177.62 0.54,363.62 -121.45,484.88 -23.5,23.36 -41.86,39.23 -69.53,59.59 -16.76,12.32 -23.37,15.82 -41.79,26.36 -34.55,19.76 -20.99,2.59 -36,32.69l915.51 -4.25c-8.2,-23.24 -35.02,-27.27 -77.1,-59.42 -27.83,-21.26 -46.6,-32.79 -70.01,-58.83 -32.8,-36.47 -77.67,-105.05 -97.59,-159.12 -88.42,-239.9 2.03,-339.82 17.32,-428.43z"/>
   <path class="fil16" d="M8540.47 3199.85c-36.9,8.05 -73.49,-1.02 -112.67,-3.24l3.67 87.28c308.71,14.86 649.41,-7.51 953.88,-9.73 316.18,-2.31 639.26,-9.72 954.04,-12.92 318.41,-3.22 640.23,0.31 954.39,-12.2 498.94,-19.85 456.84,-70.16 710.95,233.01l139.63 4.24 2.6 -20.02c-36.51,-43.64 -64.01,-87.15 -102.02,-136.67 -27.13,-35.34 -89.73,-112.07 -117.16,-132.63 -85.14,-63.84 -324.16,-31.41 -444.89,-28.97 -323.92,6.55 -648.8,10.53 -971.48,16.71 -324.94,6.22 -653.22,6.74 -979.95,12.16 -162.5,2.7 -915.05,-10.08 -991,2.99z"/>
   <path class="fil17" d="M6839.14 3932.84c8.92,1.89 60.65,44.22 69.73,55.23 118.58,143.87 74.46,340.66 -84,420.52 -78.77,39.69 -135.16,27.66 -219.45,7.8 32.79,77.58 279.25,263.54 357.73,317.39 87.62,60.11 307.98,229.23 437.52,236.27 -19.96,-24.92 -21.58,-18.72 -43.93,-36.98 -99.79,-81.54 -162.34,-201.56 -177.15,-331.85 -29.89,-262.91 126.59,-379.7 145.94,-424.91 -28.08,-48.02 -132.19,-219.87 -161.39,-244.44l-324.99 0.97z"/>
   <path class="fil17" d="M12845.5 4427.98c-138.04,23.07 -269.72,-37.24 -316.06,-163.14 -78.92,-214.4 98.94,-311.06 114.24,-336.59l-232.86 -1.6 -216.32 318.46c161.52,245.99 103.72,551.07 -94.9,694.42 -11.02,7.96 -10.26,6.26 -20.71,15.85 -11.53,10.57 -6.08,5.46 -14.79,16.57 107,-16.57 416.1,-232.11 508.61,-315.87 61.55,-55.72 247.58,-178.98 272.77,-228.11z"/>
   <path class="fil14" d="M13181.27 1656.25c-44.17,52.32 -13.71,132.23 -2.02,190.51 14.84,73.88 23.49,134.51 73.84,169.48 -5.87,-20.59 -8.33,1.63 69.62,-19.15l272.44 -55.2c60.25,-15.35 121.57,-22.3 176.86,-37.56 35.33,-9.76 146.61,-52.51 162.85,-8 84.75,-39.47 43.49,-150.86 21.61,-246.69 -3.21,-14.04 -6.05,-29.34 -9.35,-43.98l-16.71 -43.84c-20.81,21.36 -19.48,11.65 -87.4,25.04 -134.44,26.51 -471.65,109.26 -582.71,121.34 -62.19,6.77 -68.01,-1.11 -79.03,-51.96z"/>
   <path class="fil14" d="M7265.34 3505.48c96.06,9.65 222.6,6.52 323.65,10.38 82.18,3.14 257.39,15.48 329.89,4.02 -11.79,-11.9 19.49,-9.47 -24.89,-9.85l16.56 -15.38c17.16,-22.96 10.54,-54.13 10.68,-92.37 0.27,-74.7 12.06,-340.29 -5.63,-367.87 -0.53,1.73 -0.71,4.29 -0.83,5.39l-13.04 186.35c-43.64,1.83 -523.31,5.38 -559.9,-59.36 -45.92,-107.69 47.94,-126.29 134.51,-131.38l-190.89 2.61 1.61 471.28c-1.97,-2.04 -3.72,-4.96 -4.75,-7.05 -26.76,-53.95 5.33,-359.04 -15.4,-486.92 60.69,16.04 603.29,15.58 674.43,2.43 -24,104.97 0.17,375.32 -4.79,501.21 21.08,-45.35 5.72,-489.02 2.55,-500.35 -66.59,-6.05 -641.74,-6.42 -675.61,5.1l1.85 481.74z"/>
   <path class="fil14" d="M8662.89 3142.43c192.94,5.83 889.65,8.98 1063.07,-1.31 341.82,-20.28 711.18,9.05 1054.36,-12.05l1.09 -75.8 -1593.75 9.63c-176.63,0.16 -352.95,-17.92 -522.45,-18.6l-2.32 98.14z"/>
   <path class="fil14" d="M6883.09 3212.99l0.04 8.6c0.34,76.05 -24.21,234.29 24.99,277.4 39.05,22.82 262.28,17.11 324.3,13.12l-1.08 -498.34 -209.63 -2.11c-163.62,0 -139.31,49.35 -138.62,201.32z"/>
   <path class="fil14" d="M7817.38 4814.09c56.9,-0.83 92.31,-10.98 141.24,14.7 6.23,78.86 -115.79,118.65 -200.53,138.95 -44.35,10.63 -109.14,12.61 -158.79,2.66 -172,-34.42 -322.03,-168.08 -333.69,-346.47 -5.43,-83.19 -1.98,-119.59 53.54,-131.9 48.31,56.95 25.39,97.54 78.17,139.84 -35.78,-235.19 67.25,-272.73 101.17,-326.53 -162.98,-48 -100.05,-60.49 -150.16,-71.71 -44.3,68.72 -85.36,103.66 -111.04,209.89 -41.6,172.07 34.69,363.68 166.05,460.39 239.96,176.68 531.29,92.92 658.92,-107.89 119.6,-188.17 81.63,-330.16 7.95,-490.22l-199.71 -1.09c18.08,42.09 44.74,30.45 82.22,119.36 42.04,99.73 31.37,208.26 -35.04,296.44 -29.72,39.45 -42.86,46.85 -74.74,70.89l-20.51 17.58c-0.88,-1.6 -3.44,3.35 -5.03,5.12z"/>
   <path class="fil14" d="M7992.99 3220.77c7.08,-52.11 26.45,-153.1 -8.59,-202.3 71.59,5.75 296.11,-9.3 337.95,15.62l-171.28 2.26c60.27,-0.79 145.6,42.15 153.93,84.41 18.55,94.03 -262.99,101.16 -312.01,100.01zm-16.83 299.68c72,8.43 254.24,8.62 326.68,3.55 105.4,-7.37 76.16,-149.93 76.1,-250.81 -0.05,-104.45 28.04,-242.27 -68.18,-259.43 -37.82,-6.74 -292.76,-5.17 -333.89,0.62l-0.71 506.06z"/>
   <path class="fil14" d="M8843.86 4527.67c1.44,1.98 2.65,3.03 3.12,6.65l7.85 20.1c7.03,19.3 0.06,7.15 9.08,24.2 25.42,48.01 67.91,76.79 113.73,99.69 104.56,52.28 159.28,-0.57 237.38,-13.52 -18.46,79.48 -149.27,133.43 -252.13,98.16 -138.3,-47.43 -149.43,-196.17 -119.05,-235.28zm410.87 -119.47c-39.16,-5.29 -153.92,1.3 -213.18,1.29 -69.47,0 -148.24,4.7 -209.12,-6.79 -97.71,97.01 -37.35,404.42 217.78,397.77 232.52,-6.05 305.72,-291.98 204.52,-392.28z"/>
   <path class="fil14" d="M11565.57 4542.63c19.84,7.34 17.99,2.94 35.97,40.39 12.6,26.23 8.49,21.37 25.99,41.9 43.62,51.22 137.37,82.06 213.38,70.98 45.43,-6.63 69.63,-28.41 106.43,-38.42 -9.29,110.21 -249.6,175.92 -347.79,38.31 -34.61,-48.52 -34.45,-79.51 -33.98,-153.15zm-0.79 -131.17c-105.69,217.97 49.02,396.72 235.97,388.87 239.42,-10.05 290.6,-324.42 189.08,-401.74 -24.34,17.68 -2.98,9.22 -42.19,11.64 -81.88,5.02 -339.43,-11.11 -382.86,1.23z"/>
   <path class="fil14" d="M7856.25 4665.11c-47.11,150.79 -361.09,149.99 -389.49,-50.16 -12.3,-86.69 13.34,-79.89 14.96,-81.63 38.41,83.31 46.39,111.49 140.02,150.79 110.24,46.28 187.53,-16.11 234.51,-19zm-395.72 -256.94c-10.28,49.92 -34.9,62 -33.8,137.91 3.81,261.54 355.91,354.08 480.09,120.56 59.42,-111.74 29.79,-172.39 -10.82,-265.25 -66.81,19.65 -341.16,7.99 -435.48,6.79z"/>
   <path class="fil14" d="M10236.27 4528.36c56.13,14.87 -5.9,24.16 56.45,90.12 74.62,78.93 151.81,95.67 254.7,66.46l33.93 -9.33c32.56,-10.45 -10.28,-3.54 35.57,-11.83 -35.46,138.98 -344.51,170.01 -387.41,-51.7l-0.97 -64.14c6.43,-27.35 0.22,-7.7 7.74,-19.58zm419.32 -119.35l-441.77 0.7c-39.05,102.45 -59.11,165.53 2.45,268.44 131.14,219.27 476.82,124.95 473.25,-140.77 -0.96,-71.86 -23.07,-79.54 -33.93,-128.37z"/>
   <path class="fil14" d="M9375.2 1475.59c35.98,-32.87 269.57,-17.26 319.58,-17.26 93.67,0 234.82,-7.84 320.18,6.44 -10.8,30.35 -20.16,35.35 -57.21,43.23 -69.9,14.85 -456.55,19.42 -529.43,2.68 -43.13,-9.9 -45.3,-15.7 -53.12,-35.08zm-157.94 51.6c0,76.38 -7.04,80.67 23.92,137.58 51.69,-24.33 700.32,-17.87 818.05,-17.85 17.17,-37.18 22.91,-108.56 9.55,-149.53 -21.31,-65.38 -178.98,-47.78 -270.85,-47.83l-473.1 2.17c-59.19,-0.55 -107.59,7.84 -107.57,75.47z"/>
   <path class="fil15" d="M7918.87 3519.88l17.68 -0.9c4.96,-125.89 -19.21,-396.24 4.79,-501.21 -71.14,13.15 -613.74,13.61 -674.43,-2.43 20.73,127.88 -11.36,432.97 15.4,486.92 1.03,2.09 2.78,5 4.75,7.05l-1.61 -471.28 190.89 -2.61c-86.57,5.09 -180.43,23.69 -134.51,131.38 36.59,64.74 516.26,61.18 559.9,59.36l13.04 -186.35c0.12,-1.1 0.3,-3.66 0.83,-5.39 17.7,27.57 5.9,293.17 5.63,367.87 -0.14,38.24 6.48,69.41 -10.68,92.37l-16.56 15.38c44.39,0.38 13.1,-2.05 24.89,9.85z"/>
   <path class="fil15" d="M9991.39 4612.8c-5.49,77.96 52.95,172.15 94.48,221.37 24.45,28.97 126.29,128.92 184.71,124.88 134.7,18.32 198.26,43.08 360.53,-43.72 57.83,-30.93 66.48,-47.42 60.38,-85.34 -40.18,-26.2 -71.31,-18.79 -123.15,-15.76 -84.16,10.59 -124.27,48.29 -231.64,9.48 -76.5,-27.64 -106.13,-64.07 -150,-111.51 -85.47,-47.94 -85.55,-182.7 -139.53,-218.64 -31.99,8.52 -24.91,6.4 -38.97,30.4l-8.42 -3.37c-0.4,-0.26 -2.62,-1.6 -2.97,-1.88l-5.43 94.1z"/>
   <path class="fil15" d="M11367.25 4707.83c5.78,58.02 81.61,152 114.44,168.83 103.77,58.27 156.27,107 310.65,98.37 97.07,-5.43 246.99,-57.39 263.46,-136.45 -54.18,-52.39 -73.56,-0.84 -109.53,-38.63 -99.86,25.13 -144.94,68.34 -272.31,19.06 -72.34,-28 -135.85,-98.32 -167.19,-161.09 -33.77,-26.83 -39.49,-40.11 -56.02,-87.89 -14.69,-42.45 -12.7,-64.13 -54.14,-74.76 -62.95,28.23 -31.41,150.24 -29.35,212.57z"/>
   <path class="fil15" d="M8608.24 4654.9c-0.56,113.66 173.87,300.99 276.89,309.27 105.15,10.07 133.86,30.63 255.86,-9.29 39.72,-13 68.4,-26.38 100.58,-43.49 35.59,-18.91 58.66,-33.16 56.39,-80.88 -40.08,-20.76 -77.46,-27.7 -128.64,-9.17 -34.47,-8.28 -117.84,40.05 -224.93,1.47 -87.44,-31.5 -100.21,-69 -149.88,-109.26 -43.91,-17.11 -66.21,-62.78 -86.01,-109.84 -21.98,-52.21 -19.97,-100.89 -76.12,-109.41 -57.83,76.06 -20.91,73.85 -24.14,160.61z"/>
   <path class="fil15" d="M7817.38 4814.09c-46.67,4.72 -71.84,26.12 -142.59,25.24 -50.27,-0.62 -89.41,-13.14 -129.93,-34.15 -68.21,-35.37 -117.64,-94.95 -147.54,-173.31 -52.78,-42.3 -29.86,-82.89 -78.17,-139.84 -55.51,12.31 -58.96,48.71 -53.54,131.9 11.66,178.39 161.68,312.04 333.69,346.47 49.65,9.94 114.44,7.97 158.79,-2.66 84.75,-20.3 206.76,-60.09 200.53,-138.95 -48.93,-25.68 -84.34,-15.53 -141.24,-14.7z"/>
   <path class="fil14" d="M11946.27 4799.95c35.96,37.79 55.34,-13.76 109.53,38.63 -16.47,79.07 -166.39,131.03 -263.46,136.45 -154.38,8.63 -206.88,-40.1 -310.65,-98.37 20.51,32.88 26.81,32.34 63.05,54.93 23.91,14.9 40.99,22.61 68.57,34.92 168.4,75.17 347.27,22.62 474.62,-81.17 153.78,-125.32 209.54,-415.45 65.04,-604.28 -59.9,6.7 -11.02,30.33 -182.71,23.37 18.25,37.97 42.22,31.67 78.77,106.06 72.26,147.11 19.78,263.2 -80.87,363.39l-21.88 26.06z"/>
   <path class="fil14" d="M10568.34 4814.22c51.85,-3.03 82.97,-10.43 123.15,15.76 6.1,37.91 -2.55,54.41 -60.38,85.34 -162.26,86.8 -225.83,62.05 -360.53,43.72 16.3,18.68 8.07,19.74 71.92,31.78 85.77,16.19 147.35,13.69 231.4,-12.4 99.37,-30.84 165.73,-87.93 209.98,-142.39 135.93,-167.3 133.02,-341.69 37.72,-530.4l-200.47 -0.98c11.01,31.92 -3.6,4.06 22.52,31.82 30.83,32.75 42.02,45.92 59.31,86.5 97.63,229.09 -75.35,334 -134.64,391.25z"/>
   <path class="fil14" d="M9169.33 4821.34c51.17,-18.54 88.56,-11.59 128.64,9.17 2.27,47.72 -20.81,61.97 -56.39,80.88 -32.18,17.1 -60.86,30.49 -100.58,43.49 -122,39.92 -150.71,19.35 -255.86,9.29l36.56 20.64c8.58,2.65 26.85,5.45 35.64,6.91 87.42,14.5 136.04,12.61 224.75,-12.76 83.39,-23.84 168.94,-90.27 210.31,-141.76 181.56,-225.96 83.75,-516.02 24.28,-528.55 -2.04,-0.43 -4.57,-1.17 -6.94,-1.56l-180.16 -1.75c17.46,32.57 130.97,106.25 105.29,283.4 -11.14,76.83 -53.24,139.53 -108.35,185.73 -23.03,19.3 -37.05,23.69 -57.19,46.86z"/>
   <path class="fil16" d="M11298.49 2163.65l1362.16 -292.15c72.46,-15.23 406.42,-80.97 445.35,-103.47 -3.18,-33.27 2.66,-30.77 -30.2,-29.11 -86.36,-1.73 -352.7,69.07 -450.32,88.49 -435.29,86.67 -929.39,206.82 -1347.41,278.42l20.42 57.82z"/>
   <path class="fil16" d="M13181.27 1656.25c11.02,50.85 16.84,58.73 79.03,51.96 111.06,-12.08 448.27,-94.83 582.71,-121.34 67.92,-13.39 66.59,-3.68 87.4,-25.04 -21.62,-62.9 -77.34,-75.73 -159.66,-57.7l-411.46 85.77c-76.69,15.46 -143.99,16.8 -178.02,66.36z"/>
   <path class="fil14" d="M6566.13 4331.91c-20.65,-36.65 -6.89,-13.53 -23.09,-23.4 8.33,-51.65 0.48,-3.81 -22.01,-55.63 -1.83,-4.2 -9.17,-26.84 -9.63,-35.52 -2.41,-45.78 -7.11,-17.08 12.48,-39.72 33.28,6.27 14.94,8.53 38.61,39.88 -64.02,-285.57 358.93,-254.64 298.65,-12.37 -22.49,90.4 -90.05,94.56 -119.42,121.98l19.46 4.51 -11.58 45.96c-41.63,0.48 -82.81,-2.69 -121.78,-8.36 15.72,16.82 4.61,12.08 34.97,19.77 42.82,10.84 98.29,1.57 135.85,-14.44 55.03,-23.47 83.48,-52.47 108.94,-98.04 128.77,-230.49 -190.63,-465.4 -373.31,-252.19 -68.87,80.38 -72.25,258.24 31.86,307.58z"/>
   <path class="fil14" d="M12570.77 4241.35c-3.39,-25.27 -13.55,-35.33 -4.73,-63.53 9.1,-29.08 32.72,-29.55 42.47,-33.68 5.16,33.1 -1.28,35.16 19.56,65.67 -25.8,-188.1 154.94,-254.49 258.35,-156.82 37.06,35.01 68.25,114.98 30.88,183.48 -31.49,57.73 -75.77,91.51 -168.68,86.85l31.65 10.72c10.08,0.64 25.85,-2.93 37.17,-5.03 -3.82,36.65 -3.19,20.87 -16.76,50.82 -34.15,9.94 -49.01,4.86 -81.95,1.87 42.41,27 114.02,10.07 154.16,-9.52 164,-79.99 155.88,-278.68 63.24,-368.97 -104.66,-102 -301.26,-75.61 -365.35,74.9 -18.09,42.49 -33.74,128.89 0,163.24z"/>
   <path class="fil15" d="M7992.99 3220.77c49.02,1.14 330.56,-5.98 312.01,-100.01 -8.33,-42.26 -93.66,-85.2 -153.93,-84.41l171.28 -2.26c-41.84,-24.92 -266.36,-9.88 -337.95,-15.62 35.04,49.21 15.67,150.19 8.59,202.3z"/>
   <path class="fil14" d="M6673.53 4049.86c-174.6,68.64 -64.88,283.33 73.1,237 161.06,-54.1 71.07,-293.68 -73.1,-237z"/>
   <path class="fil14" d="M8608.24 4654.9c3.23,-86.75 -33.68,-84.55 24.14,-160.61 56.15,8.52 54.14,57.2 76.12,109.41 19.8,47.07 42.1,92.73 86.01,109.84 -23.2,-83.96 -66.52,-113.64 -40.27,-232.33 28.7,-129.78 83.76,-129.12 100.69,-175.79l-199.58 1.17c-35.45,61.01 -111.53,267.33 -47.12,348.3z"/>
   <path class="fil14" d="M11367.25 4707.83c-2.05,-62.33 -33.6,-184.34 29.35,-212.57 41.44,10.64 39.46,32.32 54.14,74.76 16.53,47.78 22.25,61.06 56.02,87.89 -15.31,-89.62 -41.65,-178.53 37.87,-290.16 17.92,-25.16 38.06,-34.44 52.14,-62.51l-200.52 0.19c-26.96,55.25 -57.57,112.01 -65.11,189.2 -5.05,51.76 -6.73,169.12 36.1,213.19z"/>
   <path class="fil14" d="M9991.39 4612.8l5.43 -94.1c0.35,0.28 2.57,1.62 2.97,1.88l8.42 3.37c14.06,-24 6.98,-21.88 38.97,-30.4 53.98,35.94 54.06,170.7 139.53,218.64 -33.23,-75.62 -65.93,-136.42 -39.87,-238.24 28.49,-111.27 84.4,-137.25 104.36,-168.53l-203.92 0.59c-21.51,41.78 -45.93,82.99 -58.83,138.91 -7.23,31.31 -19.58,139.24 2.94,167.87z"/>
   <path class="fil14" d="M12678.36 4141.31c33.71,23.5 53.27,121.41 184.54,75.49 -12.91,38.32 -44.58,56.9 -84.05,61.71 -0.58,0.07 -22.92,0.47 -23.08,0.45 -15.65,-2.08 -11.82,-2.47 -19.36,-6.05 -47.55,-22.62 -72.22,-64.81 -58.04,-131.59zm212.98 78.01c69.56,-154.38 -161,-251.07 -227.92,-100.72 -66.08,148.43 161.63,247.82 227.92,100.72z"/>
   <path class="fil17" d="M7460.53 4408.18c94.31,1.2 368.67,12.87 435.48,-6.79 -50.02,-90.68 -102.13,-98.77 -221.07,-99.03 -64.44,-0.14 -84.52,-10.37 -134.01,23.29 -41.95,28.54 -48.6,34.02 -80.41,82.52z"/>
   <path class="fil17" d="M10213.82 4409.72l441.77 -0.7c-27.45,-37.63 -44.75,-61.28 -83.91,-86.99 -46.29,-30.39 -80.46,-20.6 -137.72,-20.64 -99.34,-0.07 -144.07,-5.36 -220.14,108.33z"/>
   <path class="fil17" d="M11564.79 4411.46c43.43,-12.33 300.99,3.8 382.86,-1.23 39.2,-2.42 17.85,6.04 42.19,-11.64 -12.92,-45.2 -32.65,-54.19 -80.51,-82.35 -40.11,-23.59 -91.26,-14.71 -143.16,-14.94 -106.88,-0.45 -162.62,29.34 -201.38,110.15z"/>
   <path class="fil16" d="M9375.2 1475.59c7.83,19.38 9.99,25.18 53.12,35.08 72.88,16.74 459.53,12.17 529.43,-2.68 37.05,-7.87 46.41,-12.88 57.21,-43.23 -85.36,-14.27 -226.51,-6.44 -320.18,-6.44 -50.01,0 -283.6,-15.61 -319.58,17.26z"/>
   <path class="fil17" d="M8832.43 4402.7c60.87,11.48 139.65,6.79 209.12,6.79 59.26,0.01 174.03,-6.58 213.18,-1.29 -32.83,-108.45 -143.55,-105.78 -213.18,-105.85 -68.99,-0.07 -160.55,-4.98 -209.12,100.36z"/>
   <path class="fil17" d="M10616.91 4663.78c-45.85,8.29 -3.01,1.38 -35.57,11.83l-33.93 9.33c-102.88,29.21 -180.07,12.47 -254.7,-66.46 -62.35,-65.95 -0.32,-75.24 -56.45,-90.12 -7.52,11.87 -1.31,-7.77 -7.74,19.58l0.97 64.14c42.9,221.7 351.95,190.68 387.41,51.7z"/>
   <path class="fil17" d="M7856.25 4665.11c-46.97,2.89 -124.27,65.28 -234.51,19 -93.63,-39.3 -101.62,-67.48 -140.02,-150.79 -1.62,1.74 -27.25,-5.05 -14.96,81.63 28.4,200.15 342.38,200.95 389.49,50.16z"/>
   <path class="fil17" d="M8977.66 4678.31c-45.82,-22.91 -88.32,-51.68 -113.73,-99.69 -9.03,-17.05 -2.05,-4.9 -9.08,-24.2l-7.85 -20.1c-0.47,-3.62 -1.68,-4.67 -3.12,-6.65 -30.39,39.11 -19.25,187.85 119.05,235.28 102.85,35.27 233.66,-18.68 252.13,-98.16 -78.1,12.94 -132.83,65.79 -237.38,13.52z"/>
   <path class="fil17" d="M11947.35 4657.47c-36.81,10.01 -61,31.79 -106.43,38.42 -76.01,11.09 -169.76,-19.76 -213.38,-70.98 -17.5,-20.53 -13.39,-15.67 -25.99,-41.9 -17.99,-37.44 -16.13,-33.05 -35.97,-40.39 -0.47,73.65 -0.63,104.63 33.98,153.15 98.19,137.61 338.5,71.91 347.79,-38.31z"/>
   <path class="fil15" d="M11238.07 2165.11l-0.1 12.53c-17.96,-49.63 -78.32,-68.4 -124.27,-99.94 55.31,142.05 84.87,166.42 132.75,340.69 7.69,27.99 20.57,104.47 29.82,129.28 31.8,-39.82 26.02,-142.24 19.88,-197.53 -4.66,-41.92 -22.03,-126.79 -42.27,-163.23 -12.55,-22.62 -0.11,-6.96 -15.81,-21.8z"/>
   <path class="fil13" d="M6673.53 4049.86c144.17,-56.68 234.16,182.9 73.1,237 -137.97,46.33 -247.69,-168.36 -73.1,-237zm-111.03 167.65c7.69,35.25 28.22,58.35 56.22,78.73 37.11,27 78.91,28.23 123.01,30.88 29.37,-27.42 96.93,-31.58 119.42,-121.98 60.28,-242.27 -362.67,-273.2 -298.65,12.37z"/>
   <path class="fil13" d="M12891.34 4219.31c-66.29,147.1 -293.99,47.71 -227.92,-100.72 66.92,-150.35 297.48,-53.67 227.92,100.72zm-263.27 -9.5c19.33,69.85 55.29,90.59 120.56,113.52 92.91,4.66 137.18,-29.12 168.68,-86.85 37.37,-68.5 6.18,-148.48 -30.88,-183.48 -103.42,-97.67 -284.15,-31.29 -258.35,156.82z"/>
   <path class="fil15" d="M13253.09 2016.25c37.7,48.72 264.63,-20.62 333.64,-35.16 64.82,-13.65 321.12,-55.29 348.13,-84.75 -16.24,-44.51 -127.52,-1.75 -162.85,8 -55.29,15.26 -116.61,22.2 -176.86,37.56l-272.44 55.2c-77.95,20.78 -75.49,-1.44 -69.62,19.15z"/>
   <path class="fil11" d="M8427.88 3145.91l180.72 -2.09 0.52 -109.15 -224.5 -40.18c39.38,53.36 40.4,81.67 43.26,151.42z"/>
   <path class="fil15" d="M12570.77 4241.35c6.16,57.54 86.29,137.92 147.96,140.35 32.94,3 47.8,8.08 81.95,-1.87 13.57,-29.94 12.93,-14.17 16.76,-50.82 -11.32,2.1 -27.09,5.67 -37.17,5.03l-31.65 -10.72c-65.27,-22.92 -101.23,-43.67 -120.56,-113.52 -20.84,-30.52 -14.4,-32.57 -19.56,-65.67 -9.75,4.13 -33.37,4.6 -42.47,33.68 -8.82,28.19 1.34,38.26 4.73,63.53z"/>
   <path class="fil15" d="M6566.13 4331.91c8.74,23.28 43.14,35.77 61.69,37.32 38.98,5.67 80.15,8.84 121.78,8.36l11.58 -45.96 -19.46 -4.51c-44.11,-2.65 -85.9,-3.88 -123.01,-30.88 -28,-20.38 -48.53,-43.48 -56.22,-78.73 -23.67,-31.35 -5.33,-33.61 -38.61,-39.88 -19.6,22.64 -14.89,-6.06 -12.48,39.72 0.46,8.68 7.8,31.32 9.63,35.52 22.48,51.82 30.34,3.98 22.01,55.63 16.2,9.87 2.45,-13.24 23.09,23.4z"/>
   <path class="fil17" d="M7936.55 3518.98l-17.68 0.9c-72.5,11.46 -247.71,-0.88 -329.89,-4.02 -101.04,-3.86 -227.59,-0.73 -323.65,-10.38 10.67,22.51 292.37,15.6 332.24,16.84 80.92,2.53 286.06,17.35 352.67,0.9l-1.03 -511.51 -644.52 -2.04c-41.87,1.48 -24.31,-6.99 -41.21,14.07 33.87,-11.52 609.02,-11.14 675.61,-5.1 3.17,11.32 18.53,454.99 -2.55,500.35z"/>
   <path class="fil16" d="M11113.7 2077.7c45.95,31.54 106.31,50.31 124.27,99.94l0.1 -12.53c-9.88,-71.86 -139.46,-197.63 -209.11,-222.16l84.74 134.76z"/>
   <path class="fil17" d="M12755.76 4278.95c0.17,0.02 22.5,-0.37 23.08,-0.45 39.47,-4.81 71.15,-23.38 84.05,-61.71 -131.27,45.92 -150.83,-51.99 -184.54,-75.49 -14.18,66.78 10.5,108.96 58.04,131.59 7.54,3.58 3.71,3.97 19.36,6.05z"/>
   <path class="fil18" d="M10271.61 1658.51c-30.19,-18.51 -118.66,-12.22 -155.85,-11.72 -1.29,-30.79 0.85,-62.47 0.85,-93.81 0.01,-47.04 5.33,-63.13 -20.23,-87.46 4.01,38.45 9.72,52.71 9.8,96.08 0.06,30 -3.85,63.27 -2.6,89.61 41.73,15.49 124.04,13.81 168.02,7.31z"/>
   <path class="fil17" d="M8233.01 529.44c27.8,1.99 -5.2,-7.92 26.39,24.53l42.79 7.84c-16.25,-15.49 2.74,-2.82 -18.39,-12.19l-31.3 -11.54c36.8,-43.37 89.38,-9.32 87.8,43.03 4.83,-2.79 18.65,-10.03 23.93,-13.16 -10.67,-31.06 -19.13,-47.64 -48.91,-60.41 -16.27,-6.98 -27.55,-10.82 -46.53,-6.79 -26.66,5.66 -26.74,16.09 -35.77,28.69z"/>
   <path class="fil18" d="M8331.79 662.54c-75.21,17.55 -64.48,-4.72 -106.68,-29.15 2.56,63.82 75.64,91.97 106.68,29.15z"/>
   <path class="fil19" d="M8302.2 561.81c41.15,14.7 -3.45,17.56 38.11,19.3 1.57,-52.34 -51,-86.39 -87.8,-43.03l31.3 11.54c21.13,9.37 2.14,-3.3 18.39,12.19z"/>
   <path class="fil19" d="M6821.57 3514.34l34.4 -2.72c-0.68,-11.37 3.93,-4.79 -2.85,-19.51 -13.22,-28.71 -2.53,-5.29 -12.48,-18.14l2.33 30.96 -21.4 9.41z"/>
  </g>
  <rect class="fil20 str0" x="3570.66" y="9.37" width="78.23" height="2990.61"/>
  <path class="fil21" d="M3608.15 9.37l1997.82 0c-107.88,161.49 -81.76,348.52 -97.09,516.81l-1900.73 0 0 -516.81z"/>
  <path class="fil1" d="M3608.15 1043l1926.89 0c116.26,-124.64 6.2,-344.54 -26.16,-516.81l-1900.73 0 0 516.81z"/>
  <path class="fil22" d="M9510.27 2656.4l0 -80.77 370.43 -427.54c-42.07,2.25 -79.08,3.37 -111.02,3.37l-236.88 0 0 -80.02 476.76 0 0 65.19 -317.09 370.81 -60.67 68.94c44.52,-3.76 86.22,-5.63 125.1,-5.63l270.68 0 0 85.65 -517.33 0z"/>
 </g>
</svg>
